<?xml version="1.0" encoding="utf-8"?>
<svg version="1.1" xmlns:xlink="http://www.w3.org/1999/xlink" width="13px" height="23px" xmlns="http://www.w3.org/2000/svg">
  <g transform="matrix(1 0 0 1 -531 -166 )">
    <path d="M 13 3.28163771712159  C 13 3.52894954507858  12.9205276705277 3.7429693961952  12.761583011583 3.92369727047146  L 6.0984555984556 11.5  L 12.761583011583 19.0763027295285  C 12.9205276705277 19.2570306038048  13 19.4710504549214  13 19.7183622828784  C 13 19.9656741108354  12.9205276705277 20.179693961952  12.761583011583 20.3604218362283  L 10.6785714285714 22.7289081885856  C 10.5196267696268 22.9096360628619  10.3314028314028 23  10.1138996138996 23  C 9.8963963963964 23  9.70817245817246 22.9096360628619  9.5492277992278 22.7289081885856  L 0.238416988416988 12.1420595533499  C 0.0794723294723296 11.9613316790736  0 11.747311827957  0 11.5  C 0 11.252688172043  0.0794723294723296 11.0386683209264  0.238416988416988 10.8579404466501  L 9.5492277992278 0.271091811414391  C 9.70817245817246 0.0903639371381296  9.8963963963964 0  10.1138996138996 0  C 10.3314028314028 0  10.5196267696268 0.0903639371381296  10.6785714285714 0.271091811414391  L 12.761583011583 2.63957816377171  C 12.9205276705277 2.82030603804797  13 3.0343258891646  13 3.28163771712159  Z " fill-rule="nonzero" fill="#7f7f7f" stroke="none" transform="matrix(1 0 0 1 531 166 )" />
  </g>
</svg>