<?xml version="1.0" encoding="utf-8"?>
<svg version="1.1" xmlns:xlink="http://www.w3.org/1999/xlink" width="23px" height="23px" xmlns="http://www.w3.org/2000/svg">
  <g transform="matrix(1 0 0 1 -725 -359 )">
    <path d="M 9.58333333333333 17.8190104166667  C 9.84288194444444 17.8190104166667  10.0674913194444 17.7241753472222  10.2571614583333 17.5345052083333  L 19.451171875 8.34049479166667  C 19.6408420138889 8.15082465277778  19.7356770833333 7.92621527777778  19.7356770833333 7.66666666666667  C 19.7356770833333 7.40711805555555  19.6408420138889 7.18250868055555  19.451171875 6.99283854166667  L 17.923828125 5.46549479166667  C 17.7341579861111 5.27582465277778  17.5095486111111 5.18098958333333  17.25 5.18098958333333  C 16.9904513888889 5.18098958333333  16.7658420138889 5.27582465277778  16.576171875 5.46549479166667  L 9.58333333333333 12.4583333333333  L 6.423828125 9.298828125  C 6.23415798611111 9.10915798611111  6.00954861111111 9.01432291666667  5.75 9.01432291666667  C 5.49045138888889 9.01432291666667  5.26584201388889 9.10915798611111  5.076171875 9.298828125  L 3.548828125 10.826171875  C 3.35915798611111 11.0158420138889  3.26432291666667 11.2404513888889  3.26432291666667 11.5  C 3.26432291666667 11.7595486111111  3.35915798611111 11.9841579861111  3.548828125 12.173828125  L 8.90950520833333 17.5345052083333  C 9.09917534722222 17.7241753472222  9.32378472222222 17.8190104166667  9.58333333333333 17.8190104166667  Z M 21.7347005208333 1.26529947916667  C 22.5782335069444 2.10883246527778  23 3.12456597222222  23 4.3125  L 23 18.6875  C 23 19.8754340277778  22.5782335069444 20.8911675347222  21.7347005208333 21.7347005208333  C 20.8911675347222 22.5782335069444  19.8754340277778 23  18.6875 23  L 4.3125 23  C 3.12456597222222 23  2.10883246527778 22.5782335069444  1.26529947916667 21.7347005208333  C 0.421766493055555 20.8911675347222  0 19.8754340277778  0 18.6875  L 0 4.3125  C 0 3.12456597222222  0.421766493055555 2.10883246527778  1.26529947916667 1.26529947916667  C 2.10883246527778 0.421766493055554  3.12456597222222 0  4.3125 0  L 18.6875 0  C 19.8754340277778 0  20.8911675347222 0.421766493055554  21.7347005208333 1.26529947916667  Z " fill-rule="nonzero" fill="#0000bf" stroke="none" transform="matrix(1 0 0 1 725 359 )" />
  </g>
</svg>