<?xml version="1.0" encoding="utf-8"?>
<svg version="1.1" xmlns:xlink="http://www.w3.org/1999/xlink" width="28px" height="33px" xmlns="http://www.w3.org/2000/svg">
  <g transform="matrix(1 0 0 1 -205 -498 )">
    <path d="M 22.9869791666667 30.29296875  C 23.2178819444444 30.0597098214286  23.3333333333333 29.7834821428571  23.3333333333333 29.4642857142857  C 23.3333333333333 29.1450892857143  23.2178819444444 28.8688616071429  22.9869791666667 28.6356026785714  C 22.7560763888889 28.40234375  22.4826388888889 28.2857142857143  22.1666666666667 28.2857142857143  C 21.8506944444444 28.2857142857143  21.5772569444444 28.40234375  21.3463541666667 28.6356026785714  C 21.1154513888889 28.8688616071429  21 29.1450892857143  21 29.4642857142857  C 21 29.7834821428571  21.1154513888889 30.0597098214286  21.3463541666667 30.29296875  C 21.5772569444444 30.5262276785714  21.8506944444444 30.6428571428571  22.1666666666667 30.6428571428571  C 22.4826388888889 30.6428571428571  22.7560763888889 30.5262276785714  22.9869791666667 30.29296875  Z M 25.0833333333333 18.7006138392857  C 25.4722222222222 17.4913504464286  25.6666666666667 16.3895089285714  25.6666666666667 15.3950892857143  C 25.6666666666667 13.0747767857143  24.6519097222222 11.9146205357143  22.6223958333333 11.9146205357143  C 22.3064236111111 11.9146205357143  21.9661458333333 11.9453125  21.6015625 12.0066964285714  C 21.4071180555556 11.6383928571429  21.0881076388889 11.3468191964286  20.64453125 11.1319754464286  C 20.2009548611111 10.9171316964286  19.7543402777778 10.8097098214286  19.3046875 10.8097098214286  C 18.8550347222222 10.8097098214286  18.4357638888889 10.9202008928571  18.046875 11.1411830357143  C 17.4392361111111 10.4905133928571  16.7161458333333 10.1651785714286  15.8776041666667 10.1651785714286  C 15.5737847222222 10.1651785714286  15.2365451388889 10.2265625  14.8658854166667 10.3493303571429  C 14.4952256944444 10.4720982142857  14.2065972222222 10.6255580357143  14 10.8097098214286  L 14 4.71428571428572  C 14 4.07589285714286  13.7690972222222 3.5234375  13.3072916666667 3.05691964285714  C 12.8454861111111 2.59040178571428  12.2986111111111 2.35714285714286  11.6666666666667 2.35714285714286  C 11.046875 2.35714285714286  10.5030381944444 2.59654017857143  10.03515625 3.07533482142857  C 9.56727430555556 3.55412946428572  9.33333333333333 4.10044642857143  9.33333333333333 4.71428571428572  L 9.33333333333333 15.3214285714286  C 9.09027777777778 15.3214285714286  8.79557291666667 15.2293526785714  8.44921875 15.0452008928571  C 8.10286458333333 14.8610491071429  7.76866319444445 14.6584821428571  7.44661458333333 14.4375  C 7.12456597222222 14.2165178571429  6.71137152777778 14.0139508928571  6.20703125 13.8297991071429  C 5.70269097222222 13.6456473214286  5.18923611111111 13.5535714285714  4.66666666666667 13.5535714285714  C 3.85243055555556 13.5535714285714  3.25998263888889 13.8267299107143  2.88932291666667 14.373046875  C 2.51866319444445 14.9193638392857  2.33333333333333 15.6283482142857  2.33333333333333 16.5  C 2.33333333333333 16.7946428571429  3.17795138888889 17.3470982142857  4.8671875 18.1573660714286  C 5.40190972222222 18.4520089285714  5.796875 18.6791294642857  6.05208333333333 18.8387276785714  C 6.82986111111111 19.3297991071429  7.7109375 20.0172991071429  8.6953125 20.9012276785714  C 9.6796875 21.7728794642857  10.3237847222222 22.3928571428571  10.6276041666667 22.7611607142857  C 11.3203125 23.6082589285714  11.6666666666667 24.4676339285714  11.6666666666667 25.3392857142857  L 11.6666666666667 26  L 23.3333333333333 26  L 23.3333333333333 25.3392857142857  C 23.3333333333333 24.4553571428571  23.5277777777778 23.4302455357143  23.9166666666667 22.2639508928571  C 24.3055555555556 21.09765625  24.6944444444444 19.9098772321429  25.0833333333333 18.7006138392857  Z M 26.5325520833333 11.1227678571429  C 27.5108506944444 12.1785714285714  28 13.5719866071429  28 15.3030133928571  C 28 16.9358258928571  27.5807291666667 18.9123883928571  26.7421875 21.2327008928571  C 26.0251736111111 23.24609375  25.6666666666667 24.6149553571429  25.6666666666667 25.3392857142857  L 25.6666666666667 30.6428571428571  C 25.6666666666667 31.2935267857143  25.4388020833333 31.8490513392857  24.9830729166667 32.3094308035714  C 24.52734375 32.7698102678571  23.9774305555556 33  23.3333333333333 33  L 11.6666666666667 33  C 11.0225694444444 33  10.47265625 32.7698102678571  10.0169270833333 32.3094308035714  C 9.56119791666667 31.8490513392857  9.33333333333333 31.2935267857143  9.33333333333333 30.6428571428571  L 9.33333333333333 25.3392857142857  C 9.33333333333333 25.2165178571429  9.30598958333333 25.0845424107143  9.25130208333333 24.943359375  C 9.19661458333333 24.8021763392857  9.11154513888889 24.6579241071429  8.99609375 24.5106026785714  C 8.88064236111111 24.36328125  8.77126736111111 24.2251674107143  8.66796875 24.0962611607143  C 8.56467013888889 23.9673549107143  8.42795138888889 23.8200334821429  8.2578125 23.654296875  C 8.08767361111111 23.4885602678571  7.95703125 23.3627232142857  7.86588541666667 23.2767857142857  C 7.77473958333333 23.1908482142857  7.64409722222222 23.07421875  7.47395833333333 22.9268973214286  C 7.30381944444445 22.7795758928571  7.20052083333333 22.6936383928571  7.1640625 22.6690848214286  C 6.26475694444444 21.87109375  5.48090277777778 21.2572544642857  4.8125 20.8275669642857  C 4.55729166666667 20.66796875  4.18055555555556 20.4654017857143  3.68229166666667 20.2198660714286  C 3.18402777777778 19.9743303571429  2.74652777777778 19.7472098214286  2.36979166666667 19.5385044642857  C 1.99305555555556 19.3297991071429  1.61024305555556 19.0811941964286  1.22135416666667 18.7926897321429  C 0.832465277777778 18.5041852678571  0.531684027777778 18.1665736607143  0.319010416666667 17.7798549107143  C 0.106336805555556 17.3931361607143  0 16.9665178571429  0 16.5  C 0 14.9654017857143  0.407118055555556 13.6978236607143  1.22135416666667 12.697265625  C 2.03559027777778 11.6967075892857  3.18402777777778 11.1964285714286  4.66666666666667 11.1964285714286  C 5.49305555555556 11.1964285714286  6.27083333333333 11.3314732142857  7 11.6015625  L 7 4.71428571428572  C 7 3.4375  7.46180555555555 2.33258928571428  8.38541666666667 1.39955357142857  C 9.30902777777778 0.466517857142861  10.3967013888889 0  11.6484375 0  C 12.9244791666667 0  14.0243055555556 0.463448660714287  14.9479166666667 1.39034598214286  C 15.8715277777778 2.31724330357143  16.3333333333333 3.42522321428572  16.3333333333333 4.71428571428572  L 16.3333333333333 7.82645089285714  C 17.0868055555556 7.87555803571428  17.8098958333333 8.10267857142857  18.5026041666667 8.5078125  C 18.7578125 8.47098214285714  19.0190972222222 8.45256696428572  19.2864583333333 8.45256696428572  C 20.5138888888889 8.45256696428572  21.5954861111111 8.82087053571428  22.53125 9.55747767857143  C 24.2204861111111 9.54520089285714  25.5542534722222 10.0669642857143  26.5325520833333 11.1227678571429  Z " fill-rule="nonzero" fill="#555555" stroke="none" transform="matrix(1 0 0 1 205 498 )" />
  </g>
</svg>