<?xml version="1.0" encoding="utf-8"?>
<svg version="1.1" xmlns:xlink="http://www.w3.org/1999/xlink" width="14px" height="32px" xmlns="http://www.w3.org/2000/svg">
  <g transform="matrix(1 0 0 1 -211 -463 )">
    <path d="M 13.8363636363636 7.2962962962963  C 13.9939393939394 7.49382716049383  14.0242424242424 7.70987654320988  13.9272727272727 7.94444444444444  C 13.8181818181818 8.17901234567901  13.6424242424242 8.2962962962963  13.4 8.2962962962963  L 9.32727272727273 8.2962962962963  L 9.32727272727273 31.4074074074074  C 9.32727272727273 31.5802469135802  9.27272727272727 31.7222222222222  9.16363636363636 31.8333333333333  C 9.05454545454545 31.9444444444444  8.91515151515152 32  8.74545454545455 32  L 5.25454545454545 32  C 5.08484848484849 32  4.94545454545455 31.9444444444444  4.83636363636364 31.8333333333333  C 4.72727272727273 31.7222222222222  4.67272727272727 31.5802469135802  4.67272727272727 31.4074074074074  L 4.67272727272727 8.2962962962963  L 0.6 8.2962962962963  C 0.345454545454545 8.2962962962963  0.16969696969697 8.17901234567901  0.0727272727272727 7.94444444444444  C -0.0242424242424243 7.70987654320988  0.00606060606060605 7.49382716049383  0.163636363636364 7.2962962962963  L 6.52727272727273 0.185185185185187  C 6.64848484848485 0.0617283950617278  6.78787878787879 0  6.94545454545455 0  C 7.11515151515152 0  7.26060606060606 0.0617283950617278  7.38181818181818 0.185185185185187  L 13.8363636363636 7.2962962962963  Z " fill-rule="nonzero" fill="#555555" stroke="none" transform="matrix(1 0 0 1 211 463 )" />
  </g>
</svg>