<?xml version="1.0" encoding="utf-8"?>
<svg version="1.1" xmlns:xlink="http://www.w3.org/1999/xlink" width="25px" height="25px" xmlns="http://www.w3.org/2000/svg">
  <g transform="matrix(1 0 0 1 -352 -350 )">
    <path d="M 364.5 350  C 371.5 350  377 355.5  377 362.5  C 377 369.5  371.5 375  364.5 375  C 357.5 375  352 369.5  352 362.5  C 352 355.5  357.5 350  364.5 350  Z " fill-rule="nonzero" fill="#ffffff" stroke="none" />
    <path d="M 364.5 350.5  C 371.22 350.5  376.5 355.78  376.5 362.5  C 376.5 369.22  371.22 374.5  364.5 374.5  C 357.78 374.5  352.5 369.22  352.5 362.5  C 352.5 355.78  357.78 350.5  364.5 350.5  Z " stroke-width="1" stroke="#797979" fill="none" />
  </g>
</svg>