<?xml version="1.0" encoding="utf-8"?>
<svg version="1.1" xmlns:xlink="http://www.w3.org/1999/xlink" width="27px" height="27px" xmlns="http://www.w3.org/2000/svg">
  <g transform="matrix(1 0 0 1 -292 -499 )">
    <path d="M 25.7193080357143 21.0033482142857  C 26.12109375 21.1439732142857  26.5479910714286 21.2142857142857  27 21.2142857142857  L 27 27  L 0 27  L 0 21.2142857142857  C 0.452008928571429 21.2142857142857  0.87890625 21.1439732142857  1.28069196428571 21.0033482142857  C 1.68247767857143 20.8627232142857  1.97879464285714 20.724609375  2.16964285714286 20.5890066964286  C 2.36049107142857 20.4534040178571  2.59654017857143 20.2650669642857  2.87779017857143 20.0239955357143  C 3.17912946428571 19.7527901785714  3.43777901785714 19.5619419642857  3.65373883928571 19.4514508928571  C 3.86969866071429 19.3409598214286  4.15345982142857 19.2857142857143  4.50502232142857 19.2857142857143  C 4.74609375 19.2857142857143  4.96707589285714 19.3208705357143  5.16796875 19.3911830357143  C 5.36886160714286 19.4614955357143  5.52455357142857 19.5368303571429  5.63504464285714 19.6171875  C 5.74553571428572 19.6975446428571  5.91127232142857 19.8331473214286  6.13225446428571 20.0239955357143  C 6.42354910714286 20.2751116071429  6.65959821428571 20.4659598214286  6.84040178571429 20.5965401785714  C 7.02120535714286 20.7271205357143  7.3125 20.8627232142857  7.71428571428571 21.0033482142857  C 8.11607142857143 21.1439732142857  8.54799107142857 21.2142857142857  9.01004464285714 21.2142857142857  C 9.46205357142857 21.2142857142857  9.88895089285714 21.1414620535714  10.2907366071429 20.9958147321429  C 10.6925223214286 20.8501674107143  10.9838169642857 20.7145647321429  11.1646205357143 20.5890066964286  C 11.3454241071429 20.4634486607143  11.5864955357143 20.2751116071429  11.8878348214286 20.0239955357143  C 12.0987723214286 19.8331473214286  12.2619977678571 19.6975446428571  12.3775111607143 19.6171875  C 12.4930245535714 19.5368303571429  12.6487165178571 19.4614955357143  12.8445870535714 19.3911830357143  C 13.0404575892857 19.3208705357143  13.2589285714286 19.2857142857143  13.5 19.2857142857143  C 13.8515625 19.2857142857143  14.1353236607143 19.3409598214286  14.3512834821429 19.4514508928571  C 14.5672433035714 19.5619419642857  14.8258928571429 19.7527901785714  15.1272321428571 20.0239955357143  C 15.4084821428571 20.2650669642857  15.64453125 20.4534040178571  15.8353794642857 20.5890066964286  C 16.0262276785714 20.724609375  16.3225446428571 20.8627232142857  16.7243303571429 21.0033482142857  C 17.1261160714286 21.1439732142857  17.5530133928571 21.2142857142857  18.0050223214286 21.2142857142857  C 18.45703125 21.2142857142857  18.8839285714286 21.1439732142857  19.2857142857143 21.0033482142857  C 19.6875 20.8627232142857  19.9838169642857 20.724609375  20.1746651785714 20.5890066964286  C 20.3655133928571 20.4534040178571  20.6015625 20.2650669642857  20.8828125 20.0239955357143  C 21.1841517857143 19.7527901785714  21.4428013392857 19.5619419642857  21.6587611607143 19.4514508928571  C 21.8747209821429 19.3409598214286  22.1584821428571 19.2857142857143  22.5100446428571 19.2857142857143  C 22.8515625 19.2857142857143  23.1303013392857 19.3409598214286  23.3462611607143 19.4514508928571  C 23.5622209821429 19.5619419642857  23.8208705357143 19.7527901785714  24.1222098214286 20.0239955357143  C 24.4034598214286 20.2650669642857  24.6395089285714 20.4534040178571  24.8303571428571 20.5890066964286  C 25.0212053571429 20.724609375  25.3175223214286 20.8627232142857  25.7193080357143 21.0033482142857  Z M 26.15625 14.34375  C 26.71875 14.90625  27 15.5892857142857  27 16.3928571428571  L 27 19.2857142857143  C 26.7589285714286 19.2857142857143  26.5379464285714 19.2505580357143  26.3370535714286 19.1802455357143  C 26.1361607142857 19.1099330357143  25.98046875 19.0345982142857  25.8699776785714 18.9542410714286  C 25.7594866071429 18.8738839285714  25.59375 18.73828125  25.3727678571429 18.5474330357143  C 25.0814732142857 18.2963169642857  24.8454241071429 18.10546875  24.6646205357143 17.9748883928571  C 24.4838169642857 17.8443080357143  24.1925223214286 17.7087053571429  23.7907366071429 17.5680803571429  C 23.3889508928571 17.4274553571429  22.9620535714286 17.3571428571429  22.5100446428571 17.3571428571429  C 22.0479910714286 17.3571428571429  21.6160714285714 17.4274553571429  21.2142857142857 17.5680803571429  C 20.8125 17.7087053571429  20.5212053571429 17.8443080357143  20.3404017857143 17.9748883928571  C 20.1595982142857 18.10546875  19.9235491071429 18.2963169642857  19.6322544642857 18.5474330357143  C 19.4112723214286 18.73828125  19.2455357142857 18.8738839285714  19.1350446428571 18.9542410714286  C 19.0245535714286 19.0345982142857  18.8688616071429 19.1099330357143  18.66796875 19.1802455357143  C 18.4670758928571 19.2505580357143  18.24609375 19.2857142857143  18.0050223214286 19.2857142857143  C 17.6534598214286 19.2857142857143  17.3696986607143 19.23046875  17.1537388392857 19.1199776785714  C 16.9377790178571 19.0094866071429  16.6791294642857 18.8186383928571  16.3777901785714 18.5474330357143  C 16.0864955357143 18.2963169642857  15.8504464285714 18.10546875  15.6696428571429 17.9748883928571  C 15.4888392857143 17.8443080357143  15.1975446428571 17.7087053571429  14.7957589285714 17.5680803571429  C 14.3939732142857 17.4274553571429  13.9620535714286 17.3571428571429  13.5 17.3571428571429  C 13.0479910714286 17.3571428571429  12.62109375 17.4299665178571  12.2193080357143 17.5756138392857  C 11.8175223214286 17.7212611607143  11.5262276785714 17.8568638392857  11.3454241071429 17.982421875  C 11.1646205357143 18.1079799107143  10.9235491071429 18.2963169642857  10.6222098214286 18.5474330357143  C 10.4112723214286 18.73828125  10.248046875 18.8738839285714  10.1325334821429 18.9542410714286  C 10.0170200892857 19.0345982142857  9.861328125 19.1099330357143  9.66545758928571 19.1802455357143  C 9.46958705357143 19.2505580357143  9.25111607142857 19.2857142857143  9.01004464285714 19.2857142857143  C 8.65848214285714 19.2857142857143  8.37472098214286 19.23046875  8.15876116071429 19.1199776785714  C 7.94280133928572 19.0094866071429  7.68415178571429 18.8186383928571  7.3828125 18.5474330357143  C 7.1015625 18.3063616071429  6.86551339285714 18.1180245535714  6.67466517857143 17.982421875  C 6.48381696428572 17.8468191964286  6.1875 17.7087053571429  5.78571428571429 17.5680803571429  C 5.38392857142857 17.4274553571429  4.95703125 17.3571428571429  4.50502232142857 17.3571428571429  C 4.04296875 17.3571428571429  3.61104910714286 17.4274553571429  3.20926339285714 17.5680803571429  C 2.80747767857143 17.7087053571429  2.51618303571429 17.8443080357143  2.33537946428571 17.9748883928571  C 2.15457589285714 18.10546875  1.91852678571429 18.2963169642857  1.62723214285714 18.5474330357143  C 1.32589285714286 18.8186383928571  1.06724330357143 19.0094866071429  0.851283482142857 19.1199776785714  C 0.635323660714286 19.23046875  0.3515625 19.2857142857143  0 19.2857142857143  L 0 16.3928571428571  C 0 15.5892857142857  0.28125 14.90625  0.84375 14.34375  C 1.40625 13.78125  2.08928571428571 13.5  2.89285714285714 13.5  L 3.85714285714286 13.5  L 3.85714285714286 6.75  L 7.71428571428571 6.75  L 7.71428571428571 13.5  L 11.5714285714286 13.5  L 11.5714285714286 6.75  L 15.4285714285714 6.75  L 15.4285714285714 13.5  L 19.2857142857143 13.5  L 19.2857142857143 6.75  L 23.1428571428571 6.75  L 23.1428571428571 13.5  L 24.1071428571429 13.5  C 24.9107142857143 13.5  25.59375 13.78125  26.15625 14.34375  Z M 7.03627232142857 1.11495535714286  C 7.48828125 1.85825892857143  7.71428571428571 2.61160714285714  7.71428571428571 3.375  C 7.71428571428571 4.1484375  7.53348214285714 4.74358258928571  7.171875 5.16043526785714  C 6.81026785714286 5.57728794642857  6.34821428571429 5.78571428571429  5.78571428571429 5.78571428571429  C 5.25334821428571 5.78571428571429  4.798828125 5.59737723214286  4.42215401785714 5.220703125  C 4.04547991071429 4.84402901785714  3.85714285714286 4.38950892857143  3.85714285714286 3.85714285714286  C 3.85714285714286 3.56584821428571  3.90485491071429 3.30970982142857  4.00027901785714 3.08872767857143  C 4.095703125 2.86774553571428  4.21372767857143 2.69698660714286  4.35435267857143 2.57645089285714  C 4.49497767857143 2.45591517857143  4.65066964285714 2.31529017857143  4.82142857142857 2.15457589285714  C 4.9921875 1.99386160714286  5.14787946428571 1.83565848214286  5.28850446428571 1.67996651785714  C 5.42912946428572 1.52427455357143  5.54715401785714 1.30078125  5.642578125 1.00948660714286  C 5.73800223214286 0.718191964285713  5.78571428571429 0.381696428571429  5.78571428571429 0  C 6.16741071428572 0  6.58426339285714 0.371651785714288  7.03627232142857 1.11495535714286  Z M 14.7505580357143 1.11495535714286  C 15.2025669642857 1.85825892857143  15.4285714285714 2.61160714285714  15.4285714285714 3.375  C 15.4285714285714 4.1484375  15.2477678571429 4.74358258928571  14.8861607142857 5.16043526785714  C 14.5245535714286 5.57728794642857  14.0625 5.78571428571429  13.5 5.78571428571429  C 12.9676339285714 5.78571428571429  12.5131138392857 5.59737723214286  12.1364397321429 5.220703125  C 11.759765625 4.84402901785714  11.5714285714286 4.38950892857143  11.5714285714286 3.85714285714286  C 11.5714285714286 3.56584821428571  11.619140625 3.30970982142857  11.7145647321429 3.08872767857143  C 11.8099888392857 2.86774553571428  11.9280133928571 2.69698660714286  12.0686383928571 2.57645089285714  C 12.2092633928571 2.45591517857143  12.3649553571429 2.31529017857143  12.5357142857143 2.15457589285714  C 12.7064732142857 1.99386160714286  12.8621651785714 1.83565848214286  13.0027901785714 1.67996651785714  C 13.1434151785714 1.52427455357143  13.2614397321429 1.30078125  13.3568638392857 1.00948660714286  C 13.4522879464286 0.718191964285713  13.5 0.381696428571429  13.5 0  C 13.8816964285714 0  14.2985491071429 0.371651785714288  14.7505580357143 1.11495535714286  Z M 22.46484375 1.11495535714286  C 22.9168526785714 1.85825892857143  23.1428571428571 2.61160714285714  23.1428571428571 3.375  C 23.1428571428571 4.1484375  22.9620535714286 4.74358258928571  22.6004464285714 5.16043526785714  C 22.2388392857143 5.57728794642857  21.7767857142857 5.78571428571429  21.2142857142857 5.78571428571429  C 20.6819196428571 5.78571428571429  20.2273995535714 5.59737723214286  19.8507254464286 5.220703125  C 19.4740513392857 4.84402901785714  19.2857142857143 4.38950892857143  19.2857142857143 3.85714285714286  C 19.2857142857143 3.56584821428571  19.3334263392857 3.30970982142857  19.4288504464286 3.08872767857143  C 19.5242745535714 2.86774553571428  19.6422991071429 2.69698660714286  19.7829241071429 2.57645089285714  C 19.9235491071429 2.45591517857143  20.0792410714286 2.31529017857143  20.25 2.15457589285714  C 20.4207589285714 1.99386160714286  20.5764508928571 1.83565848214286  20.7170758928571 1.67996651785714  C 20.8577008928571 1.52427455357143  20.9757254464286 1.30078125  21.0711495535714 1.00948660714286  C 21.1665736607143 0.718191964285713  21.2142857142857 0.381696428571429  21.2142857142857 0  C 21.5959821428571 0  22.0128348214286 0.371651785714288  22.46484375 1.11495535714286  Z " fill-rule="nonzero" fill="#facd91" stroke="none" fill-opacity="0.996078431372549" transform="matrix(1 0 0 1 292 499 )" />
  </g>
</svg>