<?xml version="1.0" encoding="utf-8"?>
<svg version="1.1" xmlns:xlink="http://www.w3.org/1999/xlink" width="42px" height="42px" xmlns="http://www.w3.org/2000/svg">
  <g transform="matrix(1 0 0 1 -256 -559 )">
    <path d="M 32.73046875 23.98046875  C 33.0768229166667 23.6341145833333  33.25 23.2239583333333  33.25 22.75  L 33.25 19.25  C 33.25 18.7760416666667  33.0768229166667 18.3658854166667  32.73046875 18.01953125  C 32.3841145833333 17.6731770833333  31.9739583333333 17.5  31.5 17.5  L 24.5 17.5  L 24.5 10.5  C 24.5 10.0260416666667  24.3268229166667 9.61588541666666  23.98046875 9.26953125  C 23.6341145833333 8.92317708333333  23.2239583333333 8.75  22.75 8.75  L 19.25 8.75  C 18.7760416666667 8.75  18.3658854166667 8.92317708333333  18.01953125 9.26953125  C 17.6731770833333 9.61588541666666  17.5 10.0260416666667  17.5 10.5  L 17.5 17.5  L 10.5 17.5  C 10.0260416666667 17.5  9.61588541666667 17.6731770833333  9.26953125 18.01953125  C 8.92317708333333 18.3658854166667  8.75 18.7760416666667  8.75 19.25  L 8.75 22.75  C 8.75 23.2239583333333  8.92317708333333 23.6341145833333  9.26953125 23.98046875  C 9.61588541666667 24.3268229166667  10.0260416666667 24.5  10.5 24.5  L 17.5 24.5  L 17.5 31.5  C 17.5 31.9739583333333  17.6731770833333 32.3841145833333  18.01953125 32.73046875  C 18.3658854166667 33.0768229166667  18.7760416666667 33.25  19.25 33.25  L 22.75 33.25  C 23.2239583333333 33.25  23.6341145833333 33.0768229166667  23.98046875 32.73046875  C 24.3268229166667 32.3841145833333  24.5 31.9739583333333  24.5 31.5  L 24.5 24.5  L 31.5 24.5  C 31.9739583333333 24.5  32.3841145833333 24.3268229166667  32.73046875 23.98046875  Z M 39.18359375 10.458984375  C 41.0611979166667 13.6764322916667  42 17.1901041666667  42 21  C 42 24.8098958333333  41.0611979166667 28.3235677083333  39.18359375 31.541015625  C 37.3059895833333 34.7584635416667  34.7584635416667 37.3059895833333  31.541015625 39.18359375  C 28.3235677083333 41.0611979166667  24.8098958333333 42  21 42  C 17.1901041666667 42  13.6764322916667 41.0611979166667  10.458984375 39.18359375  C 7.24153645833333 37.3059895833333  4.69401041666667 34.7584635416667  2.81640625 31.541015625  C 0.938802083333333 28.3235677083333  0 24.8098958333333  0 21  C 0 17.1901041666667  0.938802083333333 13.6764322916667  2.81640625 10.458984375  C 4.69401041666667 7.24153645833333  7.24153645833333 4.69401041666666  10.458984375 2.81640625  C 13.6764322916667 0.93880208333333  17.1901041666667 0  21 0  C 24.8098958333333 0  28.3235677083333 0.93880208333333  31.541015625 2.81640625  C 34.7584635416667 4.69401041666666  37.3059895833333 7.24153645833333  39.18359375 10.458984375  Z " fill-rule="nonzero" fill="#a8a8a8" stroke="none" transform="matrix(1 0 0 1 256 559 )" />
  </g>
</svg>