<?xml version="1.0" encoding="utf-8"?>
<svg version="1.1" xmlns:xlink="http://www.w3.org/1999/xlink" width="36px" height="36px" xmlns="http://www.w3.org/2000/svg">
  <g transform="matrix(1 0 0 1 -563 -617 )">
    <path d="M 20.7890625 9.2109375  C 20.9296875 9.3515625  21 9.53124999999999  21 9.75  L 21 20.25  C 21 20.46875  20.9296875 20.6484375  20.7890625 20.7890625  C 20.6484375 20.9296875  20.46875 21  20.25 21  L 12.75 21  C 12.53125 21  12.3515625 20.9296875  12.2109375 20.7890625  C 12.0703125 20.6484375  12 20.46875  12 20.25  L 12 18.75  C 12 18.53125  12.0703125 18.3515625  12.2109375 18.2109375  C 12.3515625 18.0703125  12.53125 18  12.75 18  L 18 18  L 18 9.75  C 18 9.53124999999999  18.0703125 9.3515625  18.2109375 9.2109375  C 18.3515625 9.0703125  18.53125 9  18.75 9  L 20.25 9  C 20.46875 9  20.6484375 9.0703125  20.7890625 9.2109375  Z M 29.0390625 24.3984375  C 30.1796875 22.4453125  30.75 20.3125  30.75 18  C 30.75 15.6875  30.1796875 13.5546875  29.0390625 11.6015625  C 27.8984375 9.6484375  26.3515625 8.1015625  24.3984375 6.9609375  C 22.4453125 5.8203125  20.3125 5.25  18 5.25  C 15.6875 5.25  13.5546875 5.8203125  11.6015625 6.9609375  C 9.6484375 8.1015625  8.1015625 9.6484375  6.9609375 11.6015625  C 5.8203125 13.5546875  5.25 15.6875  5.25 18  C 5.25 20.3125  5.8203125 22.4453125  6.9609375 24.3984375  C 8.1015625 26.3515625  9.6484375 27.8984375  11.6015625 29.0390625  C 13.5546875 30.1796875  15.6875 30.75  18 30.75  C 20.3125 30.75  22.4453125 30.1796875  24.3984375 29.0390625  C 26.3515625 27.8984375  27.8984375 26.3515625  29.0390625 24.3984375  Z M 33.5859375 8.96484375  C 35.1953125 11.72265625  36 14.734375  36 18  C 36 21.265625  35.1953125 24.27734375  33.5859375 27.03515625  C 31.9765625 29.79296875  29.79296875 31.9765625  27.03515625 33.5859375  C 24.27734375 35.1953125  21.265625 36  18 36  C 14.734375 36  11.72265625 35.1953125  8.96484375 33.5859375  C 6.20703125 31.9765625  4.0234375 29.79296875  2.4140625 27.03515625  C 0.8046875 24.27734375  0 21.265625  0 18  C 0 14.734375  0.8046875 11.72265625  2.4140625 8.96484375  C 4.0234375 6.20703125  6.20703125 4.0234375  8.96484375 2.4140625  C 11.72265625 0.804687499999997  14.734375 0  18 0  C 21.265625 0  24.27734375 0.804687499999997  27.03515625 2.4140625  C 29.79296875 4.0234375  31.9765625 6.20703125  33.5859375 8.96484375  Z " fill-rule="nonzero" fill="#555555" stroke="none" transform="matrix(1 0 0 1 563 617 )" />
  </g>
</svg>