<?xml version="1.0" encoding="utf-8"?>
<svg version="1.1" xmlns:xlink="http://www.w3.org/1999/xlink" width="36px" height="36px" xmlns="http://www.w3.org/2000/svg">
  <g transform="matrix(1 0 0 1 -640 -617 )">
    <path d="M 29.1814988290398 22.4824120603015  C 29.8208430913349 21.0552763819096  30.1405152224824 19.5577889447236  30.1405152224824 17.9899497487437  C 30.1405152224824 16.4221105527638  29.8208430913349 14.9246231155779  29.1814988290398 13.4974874371859  C 28.5421545667447 12.070351758794  27.6779859484778 10.8375209380234  26.5889929742389 9.79899497487437  C 25.5 8.76046901172529  24.2072599531616 7.93634840871021  22.7107728337237 7.32663316582915  C 21.2142857142857 6.71691792294807  19.6440281030445 6.41206030150754  18 6.41206030150754  C 16.3559718969555 6.41206030150754  14.7857142857143 6.71691792294807  13.2892271662763 7.32663316582915  C 11.7927400468384 7.93634840871021  10.5 8.76046901172529  9.41100702576112 9.79899497487437  C 8.32201405152225 10.8375209380234  7.45784543325527 12.070351758794  6.81850117096019 13.4974874371859  C 6.17915690866511 14.9246231155779  5.85948477751756 16.4221105527638  5.85948477751756 17.9899497487437  C 5.85948477751756 19.5577889447236  6.17915690866511 21.0552763819096  6.81850117096019 22.4824120603015  C 7.45784543325527 23.9095477386935  8.32201405152225 25.142378559464  9.41100702576112 26.1809045226131  C 10.5 27.2194304857621  11.7927400468384 28.0435510887772  13.2892271662763 28.6532663316583  C 14.7857142857143 29.2629815745394  16.3559718969555 29.5678391959799  18 29.5678391959799  C 19.6440281030445 29.5678391959799  21.2142857142857 29.2629815745394  22.7107728337237 28.6532663316583  C 24.2072599531616 28.0435510887772  25.5 27.2194304857621  26.5889929742389 26.1809045226131  C 27.6779859484778 25.142378559464  28.5421545667447 23.9095477386935  29.1814988290398 22.4824120603015  Z M 35.8735362997658 22.9748743718593  C 36 23.1356783919598  36.0281030444965 23.3299832495812  35.9578454332553 23.5577889447236  C 35.9016393442623 23.7587939698492  35.7611241217799 23.892797319933  35.536299765808 23.9597989949749  L 29.3817330210773 25.8894472361809  L 29.3817330210773 32.0402010050251  C 29.3817330210773 32.2546063651591  29.2903981264637 32.428810720268  29.1077283372365 32.5628140703518  C 28.8969555035129 32.6968174204355  28.6932084309134 32.7236180904523  28.4964871194379 32.643216080402  L 22.3419203747073 30.7537688442211  L 18.5480093676815 35.7386934673367  C 18.4074941451991 35.9128978224456  18.2248243559719 36  18 36  C 17.7751756440281 36  17.5925058548009 35.9128978224456  17.4519906323185 35.7386934673367  L 13.6580796252927 30.7537688442211  L 7.50351288056206 32.643216080402  C 7.30679156908665 32.7236180904523  7.10304449648712 32.6968174204355  6.89227166276347 32.5628140703518  C 6.7096018735363 32.428810720268  6.61826697892272 32.2546063651591  6.61826697892272 32.0402010050251  L 6.61826697892272 25.8894472361809  L 0.463700234192037 23.9597989949749  C 0.23887587822014 23.892797319933  0.0983606557377049 23.7587939698492  0.0421545667447307 23.5577889447236  C -0.028103044496487 23.3299832495812  0 23.1356783919598  0.126463700234192 22.9748743718593  L 3.92037470725995 17.9899497487437  L 0.126463700234192 13.0050251256281  C 0 12.8308207705193  -0.028103044496487 12.6365159128978  0.0421545667447307 12.4221105527638  C 0.0983606557377049 12.2211055276382  0.23887587822014 12.0871021775544  0.463700234192037 12.0201005025126  L 6.61826697892272 10.0904522613065  L 6.61826697892272 3.93969849246231  C 6.61826697892272 3.72529313232831  6.7096018735363 3.55108877721943  6.89227166276347 3.41708542713568  C 7.10304449648712 3.28308207705192  7.30679156908665 3.25628140703517  7.50351288056206 3.33668341708543  L 13.6580796252927 5.22613065326633  L 17.4519906323185 0.241206030150752  C 17.5784543325527 0.0804020100502494  17.7611241217799 0  18 0  C 18.2388758782201 0  18.4215456674473 0.0804020100502494  18.5480093676815 0.241206030150752  L 22.3419203747073 5.22613065326633  L 28.4964871194379 3.33668341708543  C 28.6932084309134 3.25628140703517  28.8969555035129 3.28308207705192  29.1077283372365 3.41708542713568  C 29.2903981264637 3.55108877721943  29.3817330210773 3.72529313232831  29.3817330210773 3.93969849246231  L 29.3817330210773 10.0904522613065  L 35.536299765808 12.0201005025126  C 35.7611241217799 12.0871021775544  35.9016393442623 12.2211055276382  35.9578454332553 12.4221105527638  C 36.0281030444965 12.6365159128978  36 12.8308207705193  35.8735362997658 13.0050251256281  L 32.07962529274 17.9899497487437  L 35.8735362997658 22.9748743718593  Z " fill-rule="nonzero" fill="#000000" stroke="none" transform="matrix(1 0 0 1 640 617 )" />
  </g>
</svg>