<?xml version="1.0" encoding="utf-8"?>
<svg version="1.1" xmlns:xlink="http://www.w3.org/1999/xlink" width="20px" height="23px" xmlns="http://www.w3.org/2000/svg">
  <g transform="matrix(1 0 0 1 -558 -163 )">
    <path d="M 16.6666666666667 6.57142857142857  C 16.6666666666667 7.82924107142857  16.3237847222222 8.99293154761905  15.6380208333333 10.0625  C 16.0460069444444 10.1822916666667  16.4344618055556 10.3448660714286  16.8033854166667 10.5502232142857  C 17.1723090277778 10.7555803571429  17.55859375 11.0678943452381  17.9622395833333 11.4871651785714  C 18.3658854166667 11.9064360119048  18.7109375 12.4005766369048  18.9973958333333 12.9695870535714  C 19.2838541666667 13.5385974702381  19.5225694444444 14.2744605654762  19.7135416666667 15.1771763392857  C 19.9045138888889 16.0798921130952  20 17.0917038690476  20 18.2126116071429  C 20 19.5303199404762  19.5659722222222 20.6576450892857  18.6979166666667 21.5945870535714  C 17.8298611111111 22.5315290178571  16.7838541666667 23  15.5598958333333 23  L 4.44010416666667 23  C 3.21614583333333 23  2.17013888888889 22.5315290178571  1.30208333333333 21.5945870535714  C 0.434027777777778 20.6576450892857  0 19.5303199404762  0 18.2126116071429  C 0 17.0917038690476  0.0954861111111111 16.0798921130952  0.286458333333333 15.1771763392857  C 0.477430555555556 14.2744605654762  0.716145833333333 13.5385974702381  1.00260416666667 12.9695870535714  C 1.2890625 12.4005766369048  1.63411458333333 11.9064360119048  2.03776041666667 11.4871651785714  C 2.44140625 11.0678943452381  2.82769097222222 10.7555803571429  3.19661458333333 10.5502232142857  C 3.56553819444444 10.3448660714286  3.95399305555556 10.1822916666667  4.36197916666667 10.0625  C 3.67621527777778 8.99293154761905  3.33333333333333 7.82924107142857  3.33333333333333 6.57142857142857  C 3.33333333333333 5.68154761904762  3.50911458333333 4.83231026785714  3.86067708333333 4.02371651785714  C 4.21223958333333 3.21512276785714  4.6875 2.515625  5.28645833333333 1.92522321428571  C 5.88541666666667 1.33482142857143  6.59505208333333 0.866350446428571  7.41536458333333 0.519810267857142  C 8.23567708333333 0.173270089285713  9.09722222222222 0  10 0  C 10.9027777777778 0  11.7643229166667 0.173270089285713  12.5846354166667 0.519810267857142  C 13.4049479166667 0.866350446428571  14.1145833333333 1.33482142857143  14.7135416666667 1.92522321428571  C 15.3125 2.515625  15.7877604166667 3.21512276785714  16.1393229166667 4.02371651785714  C 16.4908854166667 4.83231026785714  16.6666666666667 5.68154761904762  16.6666666666667 6.57142857142857  Z M 13.53515625 3.08677455357143  C 12.55859375 2.12416294642857  11.3802083333333 1.64285714285714  10 1.64285714285714  C 8.61979166666667 1.64285714285714  7.44140625 2.12416294642857  6.46484375 3.08677455357143  C 5.48828125 4.04938616071429  5 5.2109375  5 6.57142857142857  C 5 7.93191964285714  5.48828125 9.09347098214286  6.46484375 10.0560825892857  C 7.44140625 11.0186941964286  8.61979166666667 11.5  10 11.5  C 11.3802083333333 11.5  12.55859375 11.0186941964286  13.53515625 10.0560825892857  C 14.51171875 9.09347098214286  15 7.93191964285714  15 6.57142857142857  C 15 5.2109375  14.51171875 4.04938616071429  13.53515625 3.08677455357143  Z M 4.44010416666667 21  L 15.5598958333333 21  C 16.3237847222222 21.3571428571429  16.9769965277778 21.0512462797619  17.51953125 20.439453125  C 18.0620659722222 19.8276599702381  18.3333333333333 19.0853794642857  18.3333333333333 18.2126116071429  C 18.3333333333333 16.1675967261905  17.9926215277778 14.5546875  17.3111979166667 13.3738839285714  C 16.6297743055556 12.1930803571429  15.6510416666667 11.5727306547619  14.375 11.5128348214286  C 13.1163194444444 12.5995163690476  11.6579861111111 13.1428571428571  10 13.1428571428571  C 8.34201388888889 13.1428571428571  6.88368055555556 12.5995163690476  5.625 11.5128348214286  C 4.34895833333333 11.5727306547619  3.37022569444444 12.1930803571429  2.68880208333333 13.3738839285714  C 2.00737847222222 14.5546875  1.66666666666667 16.1675967261905  1.66666666666667 18.2126116071429  C 1.66666666666667 19.0853794642857  1.93793402777778 19.8276599702381  2.48046875 20.439453125  C 3.02300347222222 21.0512462797619  3.67621527777778 21.3571428571429  4.44010416666667 21  Z " fill-rule="nonzero" fill="#555555" stroke="none" transform="matrix(1 0 0 1 558 163 )" />
  </g>
</svg>