<?xml version="1.0" encoding="utf-8"?>
<svg version="1.1" xmlns:xlink="http://www.w3.org/1999/xlink" width="17px" height="15px" xmlns="http://www.w3.org/2000/svg">
  <g transform="matrix(1 0 0 1 -702 -168 )">
    <path d="M 17 3.32608695652174  C 17 3.58212560386473  16.9332092638544 3.80193236714976  16.7996277915633 3.98550724637681  L 8.97456575682382 14.7246376811594  C 8.84098428453267 14.9082125603865  8.68279569892473 15  8.5 15  C 8.31720430107527 15  8.15901571546733 14.9082125603865  8.02543424317618 14.7246376811594  L 0.200372208436725 3.98550724637681  C 0.066790736145575 3.80193236714976  0 3.58212560386473  0 3.32608695652174  C 0 3.07004830917874  0.066790736145575 2.85024154589372  0.200372208436725 2.66666666666667  L 1.95099255583127 0.27536231884058  C 2.08457402812242 0.091787439613526  2.24276261373036 0  2.42555831265509 0  C 2.60835401157982 0  2.76654259718776 0.091787439613526  2.90012406947891 0.27536231884058  L 8.5 7.97101449275362  L 14.0998759305211 0.27536231884058  C 14.2334574028122 0.091787439613526  14.3916459884202 0  14.5744416873449 0  C 14.7572373862696 0  14.9154259718776 0.091787439613526  15.0490074441687 0.27536231884058  L 16.7996277915633 2.66666666666667  C 16.9332092638544 2.85024154589372  17 3.07004830917874  17 3.32608695652174  Z " fill-rule="nonzero" fill="#555555" stroke="none" transform="matrix(1 0 0 1 702 168 )" />
  </g>
</svg>