<?xml version="1.0" encoding="utf-8"?>
<svg version="1.1" xmlns:xlink="http://www.w3.org/1999/xlink" width="23px" height="23px" xmlns="http://www.w3.org/2000/svg">
  <g transform="matrix(1 0 0 1 -798 -163 )">
    <path d="M 14.2102864583333 14.2102864583333  C 14.958984375 13.4615885416667  15.3333333333333 12.5581597222222  15.3333333333333 11.5  C 15.3333333333333 10.4418402777778  14.958984375 9.53841145833333  14.2102864583333 8.78971354166667  C 13.4615885416667 8.041015625  12.5581597222222 7.66666666666667  11.5 7.66666666666667  C 10.4418402777778 7.66666666666667  9.53841145833333 8.041015625  8.78971354166667 8.78971354166667  C 8.041015625 9.53841145833333  7.66666666666667 10.4418402777778  7.66666666666667 11.5  C 7.66666666666667 12.5581597222222  8.041015625 13.4615885416667  8.78971354166667 14.2102864583333  C 9.53841145833333 14.958984375  10.4418402777778 15.3333333333333  11.5 15.3333333333333  C 12.5581597222222 15.3333333333333  13.4615885416667 14.958984375  14.2102864583333 14.2102864583333  Z M 22.8802083333333 9.51595052083333  C 22.9600694444444 9.62076822916667  23 9.73806423611111  23 9.86783854166667  L 23 13.1920572916667  C 23 13.3118489583333  22.9600694444444 13.4266493055556  22.8802083333333 13.5364583333333  C 22.8003472222222 13.6462673611111  22.7005208333333 13.7111545138889  22.5807291666667 13.7311197916667  L 19.810546875 14.150390625  C 19.6208767361111 14.689453125  19.4262152777778 15.1436631944444  19.2265625 15.5130208333333  C 19.5759548611111 16.0121527777778  20.1100260416667 16.7009548611111  20.8287760416667 17.5794270833333  C 20.9286024305556 17.69921875  20.978515625 17.8240017361111  20.978515625 17.9537760416667  C 20.978515625 18.0835503472222  20.93359375 18.1983506944444  20.84375 18.2981770833333  C 20.57421875 18.6675347222222  20.080078125 19.2065972222222  19.361328125 19.9153645833333  C 18.642578125 20.6241319444444  18.1733940972222 20.978515625  17.9537760416667 20.978515625  C 17.833984375 20.978515625  17.7042100694444 20.93359375  17.564453125 20.84375  L 15.498046875 19.2265625  C 15.0588107638889 19.4561631944444  14.6046006944444 19.6458333333333  14.1354166666667 19.7955729166667  C 13.9756944444444 21.1532118055556  13.8309461805556 22.0815972222222  13.701171875 22.5807291666667  C 13.6312934027778 22.8602430555556  13.4516059027778 23  13.162109375 23  L 9.837890625 23  C 9.69813368055556 23  9.57584635416667 22.9575737847222  9.47102864583333 22.8727213541667  C 9.3662109375 22.7878689236111  9.30881076388889 22.6805555555556  9.298828125 22.55078125  L 8.87955729166667 19.7955729166667  C 8.39040798611111 19.6358506944444  7.94118923611111 19.451171875  7.53190104166667 19.2415364583333  L 5.42057291666667 20.84375  C 5.32074652777778 20.93359375  5.19596354166667 20.978515625  5.04622395833333 20.978515625  C 4.90646701388889 20.978515625  4.78168402777778 20.9236111111111  4.671875 20.8138020833333  C 3.4140625 19.67578125  2.59049479166667 18.8372395833333  2.201171875 18.2981770833333  C 2.13129340277778 18.1983506944444  2.09635416666667 18.0835503472222  2.09635416666667 17.9537760416667  C 2.09635416666667 17.833984375  2.13628472222222 17.7191840277778  2.21614583333333 17.609375  C 2.36588541666667 17.3997395833333  2.62044270833333 17.0678168402778  2.97981770833333 16.6136067708333  C 3.33919270833333 16.1593967013889  3.60872395833333 15.8075086805556  3.78841145833333 15.5579427083333  C 3.51888020833333 15.0588107638889  3.31423611111111 14.5646701388889  3.17447916666667 14.0755208333333  L 0.434244791666667 13.6712239583333  C 0.304470486111111 13.6512586805556  0.199652777777778 13.5888671875  0.119791666666667 13.4840494791667  C 0.0399305555555556 13.3792317708333  0 13.2619357638889  0 13.1321614583333  L 0 9.80794270833333  C 0 9.68815104166667  0.0399305555555556 9.57335069444444  0.119791666666667 9.46354166666667  C 0.199652777777778 9.35373263888889  0.294487847222222 9.28884548611111  0.404296875 9.26888020833333  L 3.189453125 8.849609375  C 3.32921006944444 8.39040798611111  3.52387152777778 7.93120659722222  3.7734375 7.47200520833333  C 3.37413194444444 6.90299479166667  2.84006076388889 6.21419270833333  2.17122395833333 5.40559895833333  C 2.07139756944444 5.28580729166667  2.021484375 5.166015625  2.021484375 5.04622395833333  C 2.021484375 4.94639756944444  2.06640625 4.83159722222222  2.15625 4.70182291666667  C 2.41579861111111 4.34244791666667  2.90744357638889 3.80588107638889  3.63118489583333 3.09212239583333  C 4.35492621527778 2.37836371527778  4.82660590277778 2.021484375  5.04622395833333 2.021484375  C 5.17599826388889 2.021484375  5.30577256944445 2.07139756944444  5.435546875 2.17122395833333  L 7.501953125 3.7734375  C 7.94118923611111 3.54383680555555  8.39539930555556 3.35416666666667  8.86458333333333 3.20442708333333  C 9.02430555555556 1.84678819444444  9.16905381944444 0.918402777777776  9.298828125 0.419270833333332  C 9.36870659722222 0.139756944444443  9.54839409722222 0  9.837890625 0  L 13.162109375 0  C 13.3018663194444 0  13.4241536458333 0.0424262152777758  13.5289713541667 0.127278645833332  C 13.6337890625 0.212131076388887  13.6911892361111 0.319444444444443  13.701171875 0.44921875  L 14.1204427083333 3.20442708333333  C 14.6095920138889 3.36414930555555  15.0588107638889 3.548828125  15.4680989583333 3.75846354166667  L 17.5944010416667 2.15625  C 17.6842447916667 2.06640625  17.8040364583333 2.021484375  17.9537760416667 2.021484375  C 18.0835503472222 2.021484375  18.2083333333333 2.07139756944444  18.328125 2.17122395833333  C 19.6158854166667 3.35915798611111  20.439453125 4.20768229166667  20.798828125 4.716796875  C 20.8687065972222 4.79665798611111  20.9036458333333 4.90646701388889  20.9036458333333 5.04622395833333  C 20.9036458333333 5.166015625  20.8637152777778 5.28081597222222  20.7838541666667 5.390625  C 20.6341145833333 5.60026041666667  20.3795572916667 5.93218315972222  20.0201822916667 6.38639322916667  C 19.6608072916667 6.84060329861111  19.3912760416667 7.19249131944444  19.2115885416667 7.44205729166667  C 19.4711371527778 7.94118923611111  19.67578125 8.43033854166666  19.8255208333333 8.90950520833333  L 22.5657552083333 9.32877604166667  C 22.6955295138889 9.34874131944444  22.8003472222222 9.4111328125  22.8802083333333 9.51595052083333  Z " fill-rule="nonzero" fill="#555555" stroke="none" transform="matrix(1 0 0 1 798 163 )" />
  </g>
</svg>