<?xml version="1.0" encoding="utf-8"?>
<svg version="1.1" xmlns:xlink="http://www.w3.org/1999/xlink" width="36px" height="36px" xmlns="http://www.w3.org/2000/svg">
  <g transform="matrix(1 0 0 1 -1141 -617 )">
    <path d="M 15.39375 21.6899488926746  C 16.33125 20.6678023850085  16.8 19.4344122657581  16.8 17.9897785349233  C 16.8 16.5451448040886  16.33125 15.3117546848382  15.39375 14.2896081771721  C 14.45625 13.267461669506  13.325 12.7563884156729  12 12.7563884156729  C 10.675 12.7563884156729  9.54375 13.267461669506  8.60625 14.2896081771721  C 7.66875 15.3117546848382  7.2 16.5451448040886  7.2 17.9897785349233  C 7.2 19.4344122657581  7.66875 20.6678023850085  8.60625 21.6899488926746  C 9.54375 22.7120954003407  10.675 23.2231686541738  12 23.2231686541738  C 13.325 23.2231686541738  14.45625 22.7120954003407  15.39375 21.6899488926746  Z M 30.496875 30.3066439522998  C 30.965625 29.7955706984668  31.2 29.1788756388416  31.2 28.4565587734242  C 31.2 27.747870528109  30.9625 27.1345826235094  30.4875 26.6166950596252  C 30.0125 26.0988074957411  29.45 25.839863713799  28.8 25.839863713799  C 28.15 25.839863713799  27.5875 26.0988074957411  27.1125 26.6166950596252  C 26.6375 27.1345826235094  26.4 27.747870528109  26.4 28.4565587734242  C 26.4 29.1788756388416  26.634375 29.7955706984668  27.103125 30.3066439522998  C 27.571875 30.8177172061329  28.1375 31.0732538330494  28.8 31.0732538330494  C 29.4625 31.0732538330494  30.028125 30.8177172061329  30.496875 30.3066439522998  Z M 30.496875 9.37308347529813  C 30.965625 8.86201022146508  31.2 8.24531516183986  31.2 7.52299829642249  C 31.2 6.81431005110732  30.9625 6.20102214650766  30.4875 5.68313458262351  C 30.0125 5.16524701873935  29.45 4.90630323679727  28.8 4.90630323679727  C 28.15 4.90630323679727  27.5875 5.16524701873935  27.1125 5.68313458262351  C 26.6375 6.20102214650766  26.4 6.81431005110732  26.4 7.52299829642249  C 26.4 8.24531516183986  26.634375 8.86201022146508  27.103125 9.37308347529813  C 27.571875 9.88415672913118  28.1375 10.1396933560477  28.8 10.1396933560477  C 29.4625 10.1396933560477  30.028125 9.88415672913118  30.496875 9.37308347529813  Z M 23.86875 15.7308347529813  C 23.95625 15.8466780238501  24 15.9795570698467  24 16.129471890971  L 24 19.9114139693356  C 24 20.0477001703578  23.95625 20.1805792163543  23.86875 20.3100511073254  C 23.78125 20.4395229982964  23.68125 20.511073253833  23.56875 20.5247018739353  L 20.6625 21.015332197615  C 20.525 21.4923339011925  20.325 22.0102214650767  20.0625 22.5689948892675  C 20.4875 23.2231686541738  21.05 24.0068143100511  21.75 24.9199318568995  C 21.8375 25.0698466780238  21.88125 25.206132879046  21.88125 25.3287904599659  C 21.88125 25.4923339011925  21.8375 25.6218057921635  21.75 25.717206132879  C 21.4625 26.1260647359455  20.946875 26.7359454855196  20.203125 27.5468483816014  C 19.459375 28.3577512776831  18.96875 28.763202725724  18.73125 28.763202725724  C 18.59375 28.763202725724  18.4625 28.7155025553663  18.3375 28.6201022146508  L 16.18125 26.7802385008518  C 15.71875 27.0391822827939  15.2375 27.2504258943782  14.7375 27.4139693356048  C 14.6 28.885860306644  14.45625 29.9420783645656  14.30625 30.5826235093697  C 14.21875 30.9097103918228  14.03125 31.0732538330494  13.74375 31.0732538330494  L 10.25625 31.0732538330494  C 10.11875 31.0732538330494  9.99375 31.0221465076661  9.88125 30.9199318568995  C 9.76875 30.8177172061329  9.70625 30.6984667802385  9.69375 30.5621805792164  L 9.2625 27.4344122657581  C 8.8375 27.2981260647359  8.36875 27.0868824531516  7.85625 26.8006814310051  L 5.64375 28.6201022146508  C 5.55625 28.7155025553663  5.43125 28.763202725724  5.26875 28.763202725724  C 5.13125 28.763202725724  5 28.7086882453152  4.875 28.5996592844974  C 3.075 26.7870528109029  2.175 25.6967632027257  2.175 25.3287904599659  C 2.175 25.206132879046  2.21875 25.076660988075  2.30625 24.9403747870528  C 2.43125 24.7495741056218  2.6875 24.3884156729131  3.075 23.8568994889267  C 3.4625 23.3253833049404  3.75625 22.9097103918228  3.95625 22.6098807495741  C 3.66875 22.0102214650767  3.45 21.4514480408859  3.3 20.9335604770017  L 0.45 20.442930153322  C 0.325 20.4293015332198  0.21875 20.3645655877342  0.13125 20.2487223168654  C 0.04375 20.1328790459966  0 20  0 19.8500851788756  L 0 16.0681431005111  C 0 15.9318568994889  0.04375 15.7989778534923  0.13125 15.6695059625213  C 0.21875 15.5400340715503  0.31875 15.4684838160136  0.43125 15.4548551959114  L 3.3375 14.9642248722317  C 3.475 14.4872231686542  3.675 13.96933560477  3.9375 13.4105621805792  C 3.5125 12.7563884156729  2.95 11.9727427597956  2.25 11.0596252129472  C 2.1625 10.9097103918228  2.11875 10.7734241908007  2.11875 10.6507666098807  C 2.11875 10.4872231686542  2.1625 10.350936967632  2.25 10.2419080068143  C 2.525 9.83304940374787  3.0375 9.22657580919931  3.7875 8.42248722316865  C 4.5375 7.61839863713799  5.03125 7.21635434412266  5.26875 7.21635434412266  C 5.40625 7.21635434412266  5.5375 7.26405451448041  5.6625 7.35945485519591  L 7.81875 9.19931856899489  C 8.24375 8.95400340715502  8.725 8.73594548551959  9.2625 8.54514480408858  C 9.4 7.0732538330494  9.54375 6.02385008517887  9.69375 5.396933560477  C 9.78125 5.06984667802385  9.96875 4.90630323679727  10.25625 4.90630323679727  L 13.74375 4.90630323679727  C 13.88125 4.90630323679727  14.00625 4.95741056218058  14.11875 5.05962521294719  C 14.23125 5.1618398637138  14.29375 5.28109028960817  14.30625 5.41737649063032  L 14.7375 8.54514480408858  C 15.1625 8.68143100511073  15.63125 8.89267461669506  16.14375 9.17887563884157  L 18.35625 7.35945485519591  C 18.45625 7.26405451448041  18.58125 7.21635434412266  18.73125 7.21635434412266  C 18.86875 7.21635434412266  19 7.27086882453151  19.125 7.37989778534924  C 20.925 9.19250425894378  21.825 10.282793867121  21.825 10.6507666098807  C 21.825 10.7597955706985  21.78125 10.8892674616695  21.69375 11.0391822827939  C 21.54375 11.2572402044293  21.28125 11.6252129471891  20.90625 12.1431005110733  C 20.53125 12.6609880749574  20.25 13.0698466780239  20.0625 13.3696763202726  C 20.35 14.0238500851789  20.5625 14.5826235093697  20.7 15.045996592845  L 23.55 15.5161839863714  C 23.675 15.5434412265758  23.78125 15.6149914821124  23.86875 15.7308347529813  Z M 33.20625 26.3918228279387  C 35.06875 26.5962521294719  36 26.8074957410562  36 27.0255536626917  L 36 29.8875638841567  C 36 30.1056218057922  35.06875 30.3168654173765  33.20625 30.5212947189097  C 33.05625 30.8892674616695  32.86875 31.2436115843271  32.64375 31.5843270868825  C 33.28125 33.1243611584327  33.6 34.0647359454855  33.6 34.4054514480409  C 33.6 34.4599659284497  33.575 34.5076660988075  33.525 34.5485519591141  C 32 35.5161839863714  31.225 36  31.2 36  C 31.1 36  30.8125 35.679727427598  30.3375 35.0391822827939  C 29.8625 34.3986371379898  29.5375 33.9352640545145  29.3625 33.649063032368  C 29.1125 33.6763202725724  28.925 33.6899488926746  28.8 33.6899488926746  C 28.675 33.6899488926746  28.4875 33.6763202725724  28.2375 33.649063032368  C 28.0625 33.9352640545145  27.7375 34.3986371379898  27.2625 35.0391822827939  C 26.7875 35.679727427598  26.5 36  26.4 36  C 26.375 36  25.6 35.5161839863714  24.075 34.5485519591141  C 24.025 34.5076660988075  24 34.4599659284497  24 34.4054514480409  C 24 34.0647359454855  24.31875 33.1243611584327  24.95625 31.5843270868825  C 24.73125 31.2436115843271  24.54375 30.8892674616695  24.39375 30.5212947189097  C 22.53125 30.3168654173765  21.6 30.1056218057922  21.6 29.8875638841567  L 21.6 27.0255536626917  C 21.6 26.8074957410562  22.53125 26.5962521294719  24.39375 26.3918228279387  C 24.55625 25.9965928449744  24.74375 25.6422487223169  24.95625 25.3287904599659  C 24.31875 23.7887563884157  24 22.8483816013629  24 22.5076660988075  C 24 22.4531516183986  24.025 22.4054514480409  24.075 22.3645655877342  C 24.125 22.3373083475298  24.34375 22.2010221465077  24.73125 21.9557069846678  C 25.11875 21.7103918228279  25.4875 21.4787052810903  25.8375 21.2606473594549  C 26.1875 21.0425894378194  26.375 20.9335604770017  26.4 20.9335604770017  C 26.5 20.9335604770017  26.7875 21.2504258943782  27.2625 21.8841567291312  C 27.7375 22.5178875638842  28.0625 22.9778534923339  28.2375 23.2640545144804  C 28.4875 23.236797274276  28.675 23.2231686541738  28.8 23.2231686541738  C 28.925 23.2231686541738  29.1125 23.236797274276  29.3625 23.2640545144804  C 30 22.2964224872232  30.575 21.5332197614991  31.0875 20.9744463373083  L 31.2 20.9335604770017  C 31.25 20.9335604770017  32.025 21.4105621805792  33.525 22.3645655877342  C 33.575 22.4054514480409  33.6 22.4531516183986  33.6 22.5076660988075  C 33.6 22.8483816013629  33.28125 23.7887563884157  32.64375 25.3287904599659  C 32.85625 25.6422487223169  33.04375 25.9965928449744  33.20625 26.3918228279387  Z M 33.20625 5.45826235093697  C 35.06875 5.66269165247019  36 5.87393526405451  36 6.09199318568995  L 36 8.95400340715502  C 36 9.17206132879046  35.06875 9.38330494037479  33.20625 9.58773424190801  C 33.05625 9.9557069846678  32.86875 10.3100511073254  32.64375 10.6507666098807  C 33.28125 12.190800681431  33.6 13.1311754684838  33.6 13.4718909710392  C 33.6 13.526405451448  33.575 13.5741056218058  33.525 13.6149914821124  C 32 14.5826235093697  31.225 15.0664395229983  31.2 15.0664395229983  C 31.1 15.0664395229983  30.8125 14.7461669505962  30.3375 14.1056218057922  C 29.8625 13.4650766609881  29.5375 13.0017035775128  29.3625 12.7155025553663  C 29.1125 12.7427597955707  28.925 12.7563884156729  28.8 12.7563884156729  C 28.675 12.7563884156729  28.4875 12.7427597955707  28.2375 12.7155025553663  C 28.0625 13.0017035775128  27.7375 13.4650766609881  27.2625 14.1056218057922  C 26.7875 14.7461669505962  26.5 15.0664395229983  26.4 15.0664395229983  C 26.375 15.0664395229983  25.6 14.5826235093697  24.075 13.6149914821124  C 24.025 13.5741056218058  24 13.526405451448  24 13.4718909710392  C 24 13.1311754684838  24.31875 12.190800681431  24.95625 10.6507666098807  C 24.73125 10.3100511073254  24.54375 9.9557069846678  24.39375 9.58773424190801  C 22.53125 9.38330494037479  21.6 9.17206132879046  21.6 8.95400340715502  L 21.6 6.09199318568995  C 21.6 5.87393526405451  22.53125 5.66269165247019  24.39375 5.45826235093697  C 24.55625 5.06303236797274  24.74375 4.70868824531516  24.95625 4.39522998296422  C 24.31875 2.85519591141397  24 1.91482112436115  24 1.57410562180579  C 24 1.51959114139693  24.025 1.47189097103918  24.075 1.43100511073254  C 24.125 1.4037478705281  24.34375 1.26746166950596  24.73125 1.0221465076661  C 25.11875 0.776831345826236  25.4875 0.545144804088581  25.8375 0.327086882453152  C 26.1875 0.109028960817715  26.375 0  26.4 0  C 26.5 0  26.7875 0.316865417376489  27.2625 0.950596252129471  C 27.7375 1.58432708688245  28.0625 2.0442930153322  28.2375 2.33049403747871  C 28.4875 2.30323679727427  28.675 2.28960817717206  28.8 2.28960817717206  C 28.925 2.28960817717206  29.1125 2.30323679727427  29.3625 2.33049403747871  C 30 1.36286201022146  30.575 0.599659284497442  31.0875 0.040885860306644  L 31.2 0  C 31.25 0  32.025 0.47700170357751  33.525 1.43100511073254  C 33.575 1.47189097103918  33.6 1.51959114139693  33.6 1.57410562180579  C 33.6 1.91482112436115  33.28125 2.85519591141397  32.64375 4.39522998296422  C 32.85625 4.70868824531516  33.04375 5.06303236797274  33.20625 5.45826235093697  Z " fill-rule="nonzero" fill="#000000" stroke="none" transform="matrix(1 0 0 1 1141 617 )" />
  </g>
</svg>