<?xml version="1.0" encoding="utf-8"?>
<svg version="1.1" xmlns:xlink="http://www.w3.org/1999/xlink" width="27px" height="27px" xmlns="http://www.w3.org/2000/svg">
  <g transform="matrix(1 0 0 1 -1000 -256 )">
    <path d="M 15.591796875 6.908203125  C 15.697265625 7.013671875  15.75 7.1484375  15.75 7.3125  L 15.75 15.1875  C 15.75 15.3515625  15.697265625 15.486328125  15.591796875 15.591796875  C 15.486328125 15.697265625  15.3515625 15.75  15.1875 15.75  L 9.5625 15.75  C 9.3984375 15.75  9.263671875 15.697265625  9.158203125 15.591796875  C 9.052734375 15.486328125  9 15.3515625  9 15.1875  L 9 14.0625  C 9 13.8984375  9.052734375 13.763671875  9.158203125 13.658203125  C 9.263671875 13.552734375  9.3984375 13.5  9.5625 13.5  L 13.5 13.5  L 13.5 7.3125  C 13.5 7.1484375  13.552734375 7.013671875  13.658203125 6.908203125  C 13.763671875 6.802734375  13.8984375 6.75  14.0625 6.75  L 15.1875 6.75  C 15.3515625 6.75  15.486328125 6.802734375  15.591796875 6.908203125  Z M 21.779296875 18.298828125  C 22.634765625 16.833984375  23.0625 15.234375  23.0625 13.5  C 23.0625 11.765625  22.634765625 10.166015625  21.779296875 8.701171875  C 20.923828125 7.236328125  19.763671875 6.076171875  18.298828125 5.220703125  C 16.833984375 4.365234375  15.234375 3.9375  13.5 3.9375  C 11.765625 3.9375  10.166015625 4.365234375  8.701171875 5.220703125  C 7.236328125 6.076171875  6.076171875 7.236328125  5.220703125 8.701171875  C 4.365234375 10.166015625  3.9375 11.765625  3.9375 13.5  C 3.9375 15.234375  4.365234375 16.833984375  5.220703125 18.298828125  C 6.076171875 19.763671875  7.236328125 20.923828125  8.701171875 21.779296875  C 10.166015625 22.634765625  11.765625 23.0625  13.5 23.0625  C 15.234375 23.0625  16.833984375 22.634765625  18.298828125 21.779296875  C 19.763671875 20.923828125  20.923828125 19.763671875  21.779296875 18.298828125  Z M 25.189453125 6.7236328125  C 26.396484375 8.7919921875  27 11.05078125  27 13.5  C 27 15.94921875  26.396484375 18.2080078125  25.189453125 20.2763671875  C 23.982421875 22.3447265625  22.3447265625 23.982421875  20.2763671875 25.189453125  C 18.2080078125 26.396484375  15.94921875 27  13.5 27  C 11.05078125 27  8.7919921875 26.396484375  6.7236328125 25.189453125  C 4.6552734375 23.982421875  3.017578125 22.3447265625  1.810546875 20.2763671875  C 0.603515625 18.2080078125  0 15.94921875  0 13.5  C 0 11.05078125  0.603515625 8.7919921875  1.810546875 6.7236328125  C 3.017578125 4.6552734375  4.6552734375 3.017578125  6.7236328125 1.810546875  C 8.7919921875 0.603515624999998  11.05078125 0  13.5 0  C 15.94921875 0  18.2080078125 0.603515624999998  20.2763671875 1.810546875  C 22.3447265625 3.017578125  23.982421875 4.6552734375  25.189453125 6.7236328125  Z " fill-rule="nonzero" fill="#000000" stroke="none" transform="matrix(1 0 0 1 1000 256 )" />
  </g>
</svg>