<?xml version="1.0" encoding="utf-8"?>
<svg version="1.1" xmlns:xlink="http://www.w3.org/1999/xlink" width="16px" height="21px" xmlns="http://www.w3.org/2000/svg">
  <g transform="matrix(1 0 0 1 -1223 -259 )">
    <path d="M 15.7250859106529 10.0160320641283  C 15.9083619702176 10.1563126252505  16 10.3176352705411  16 10.5  C 16 10.6823647294589  15.9083619702176 10.8436873747495  15.7250859106529 10.9839679358717  L 2.91408934707904 20.7895791583166  C 2.73081328751432 20.9298597194389  2.52004581901489 21  2.28178694158076 21  C 2.04352806414662 21  1.83276059564719 20.9298597194389  1.64948453608247 20.7895791583166  L 0.274914089347079 19.7374749498998  C 0.0916380297823597 19.5971943887776  0 19.435871743487  0 19.2535070140281  C 0 19.0711422845691  0.0916380297823597 18.9098196392786  0.274914089347079 18.7695390781563  L 11.0790378006873 10.5  L 0.274914089347079 2.23046092184369  C 0.0916380297823597 2.09018036072144  0 1.92885771543086  0 1.74649298597194  C 0 1.56412825651302  0.0916380297823597 1.40280561122244  0.274914089347079 1.2625250501002  L 1.64948453608247 0.210420841683367  C 1.83276059564719 0.0701402805611215  2.04352806414662 0  2.28178694158076 0  C 2.52004581901489 0  2.73081328751432 0.0701402805611215  2.91408934707904 0.210420841683367  L 15.7250859106529 10.0160320641283  Z " fill-rule="nonzero" fill="#000000" stroke="none" transform="matrix(1 0 0 1 1223 259 )" />
  </g>
</svg>