<?xml version="1.0" encoding="utf-8"?>
<svg version="1.1" xmlns:xlink="http://www.w3.org/1999/xlink" width="29px" height="22px" xmlns="http://www.w3.org/2000/svg">
  <g transform="matrix(1 0 0 1 -1001 -350 )">
    <path d="M 5.607421875 15.4140625  C 6.01199776785714 15.0234375  6.21428571428571 14.5520833333333  6.21428571428571 14  C 6.21428571428571 13.4479166666667  6.01199776785714 12.9765625  5.607421875 12.5859375  C 5.20284598214286 12.1953125  4.71465773809524 12  4.14285714285714 12  C 3.57105654761905 12  3.08286830357143 12.1953125  2.67829241071429 12.5859375  C 2.27371651785714 12.9765625  2.07142857142857 13.4479166666667  2.07142857142857 14  C 2.07142857142857 14.5520833333333  2.27371651785714 15.0234375  2.67829241071429 15.4140625  C 3.08286830357143 15.8046875  3.57105654761905 16  4.14285714285714 16  C 4.71465773809524 16  5.20284598214286 15.8046875  5.607421875 15.4140625  Z M 8.71456473214286 8.4140625  C 9.119140625 8.0234375  9.32142857142857 7.55208333333333  9.32142857142857 7  C 9.32142857142857 6.44791666666666  9.119140625 5.9765625  8.71456473214286 5.5859375  C 8.30998883928572 5.1953125  7.8218005952381 5  7.25 5  C 6.67819940476191 5  6.19001116071429 5.1953125  5.78543526785714 5.5859375  C 5.380859375 5.9765625  5.17857142857143 6.44791666666666  5.17857142857143 7  C 5.17857142857143 7.55208333333333  5.380859375 8.0234375  5.78543526785714 8.4140625  C 6.19001116071429 8.8046875  6.67819940476191 9  7.25 9  C 7.8218005952381 9  8.30998883928572 8.8046875  8.71456473214286 8.4140625  Z M 17.4129464285714 15.9375  C 17.1755952380952 15.34375  16.7872023809524 14.8697916666667  16.2477678571429 14.515625  L 17.8822544642857 8.546875  C 17.9469866071429 8.27604166666666  17.9065290178571 8.0234375  17.7608816964286 7.7890625  C 17.615234375 7.5546875  17.4075520833333 7.40104166666666  17.1378348214286 7.328125  C 16.8681175595238 7.25520833333333  16.6091889880952 7.2890625  16.3610491071429 7.4296875  C 16.1129092261905 7.5703125  15.9510788690476 7.77604166666667  15.8755580357143 8.046875  L 14.2410714285714 14.015625  C 13.59375 14.0677083333333  13.0165550595238 14.2942708333333  12.5094866071429 14.6953125  C 12.0024181547619 15.0963541666667  11.6625744047619 15.609375  11.4899553571429 16.234375  C 11.274181547619 17.0364583333333  11.382068452381 17.796875  11.8136160714286 18.515625  C 12.2451636904762 19.234375  12.8763020833333 19.6979166666667  13.70703125 19.90625  C 14.5377604166667 20.1145833333333  15.3253348214286 20.0104166666667  16.0697544642857 19.59375  C 16.8141741071429 19.1770833333333  17.2942708333333 18.5677083333333  17.5100446428571 17.765625  C 17.6826636904762 17.140625  17.6502976190476 16.53125  17.4129464285714 15.9375  Z M 26.3217075892857 15.4140625  C 26.7262834821429 15.0234375  26.9285714285714 14.5520833333333  26.9285714285714 14  C 26.9285714285714 13.4479166666667  26.7262834821429 12.9765625  26.3217075892857 12.5859375  C 25.9171316964286 12.1953125  25.428943452381 12  24.8571428571429 12  C 24.2853422619048 12  23.7971540178571 12.1953125  23.392578125 12.5859375  C 22.9880022321429 12.9765625  22.7857142857143 13.4479166666667  22.7857142857143 14  C 22.7857142857143 14.5520833333333  22.9880022321429 15.0234375  23.392578125 15.4140625  C 23.7971540178571 15.8046875  24.2853422619048 16  24.8571428571429 16  C 25.428943452381 16  25.9171316964286 15.8046875  26.3217075892857 15.4140625  Z M 15.9645647321429 5.4140625  C 16.369140625 5.0234375  16.5714285714286 4.55208333333333  16.5714285714286 4  C 16.5714285714286 3.44791666666666  16.369140625 2.9765625  15.9645647321429 2.5859375  C 15.5599888392857 2.1953125  15.0718005952381 2  14.5 2  C 13.9281994047619 2  13.4400111607143 2.1953125  13.0354352678571 2.5859375  C 12.630859375 2.9765625  12.4285714285714 3.44791666666666  12.4285714285714 4  C 12.4285714285714 4.55208333333333  12.630859375 5.0234375  13.0354352678571 5.4140625  C 13.4400111607143 5.8046875  13.9281994047619 6  14.5 6  C 15.0718005952381 6  15.5599888392857 5.8046875  15.9645647321429 5.4140625  Z M 23.2145647321429 8.4140625  C 23.619140625 8.0234375  23.8214285714286 7.55208333333333  23.8214285714286 7  C 23.8214285714286 6.44791666666666  23.619140625 5.9765625  23.2145647321429 5.5859375  C 22.8099888392857 5.1953125  22.3218005952381 5  21.75 5  C 21.1781994047619 5  20.6900111607143 5.1953125  20.2854352678571 5.5859375  C 19.880859375 5.9765625  19.6785714285714 6.44791666666666  19.6785714285714 7  C 19.6785714285714 7.55208333333333  19.880859375 8.0234375  20.2854352678571 8.4140625  C 20.6900111607143 8.8046875  21.1781994047619 9  21.75 9  C 22.3218005952381 9  22.8099888392857 8.8046875  23.2145647321429 8.4140625  Z M 27.8510044642857 8.5625  C 28.6170014880952 10.2916666666667  29 12.1041666666667  29 14  C 29 16.71875  28.2393973214286 19.234375  26.7181919642857 21.546875  C 26.5132068452381 21.8489583333333  26.221912202381 22  25.8443080357143 22  L 3.15569196428571 22  C 2.77808779761905 22  2.48679315476191 21.8489583333333  2.28180803571429 21.546875  C 0.760602678571429 19.2447916666667  0 16.7291666666667  0 14  C 0 12.1041666666667  0.382998511904762 10.2916666666667  1.14899553571429 8.5625  C 1.91499255952381 6.83333333333333  2.9453125 5.34375  4.23995535714286 4.09375  C 5.53459821428571 2.84375  7.07738095238095 1.84895833333333  8.86830357142857 1.109375  C 10.6592261904762 0.369791666666665  12.5364583333333 0  14.5 0  C 16.4635416666667 0  18.3407738095238 0.369791666666665  20.1316964285714 1.109375  C 21.9226190476191 1.84895833333333  23.4654017857143 2.84375  24.7600446428571 4.09375  C 26.0546875 5.34375  27.0850074404762 6.83333333333333  27.8510044642857 8.5625  Z " fill-rule="nonzero" fill="#000000" stroke="none" transform="matrix(1 0 0 1 1001 350 )" />
  </g>
</svg>