<?xml version="1.0" encoding="utf-8"?>
<svg version="1.1" xmlns:xlink="http://www.w3.org/1999/xlink" width="23px" height="32px" xmlns="http://www.w3.org/2000/svg">
  <g transform="matrix(1 0 0 1 -1003 -434 )">
    <path d="M 23 6.34653465346535  C 23 6.86798679867987  22.8136574074074 7.31353135313531  22.4409722222222 7.68316831683168  L 16.6111111111111 13.4653465346535  L 16.6111111111111 29.7821782178218  C 16.6111111111111 30.3894389438944  16.3914930555556 30.9108910891089  15.9522569444444 31.3465346534653  C 15.5130208333333 31.7821782178218  14.9872685185185 32  14.375 32  C 13.7627314814815 32  13.2369791666667 31.7821782178218  12.7977430555556 31.3465346534653  C 12.3585069444444 30.9108910891089  12.1388888888889 30.3894389438944  12.1388888888889 29.7821782178218  L 12.1388888888889 22.1782178217822  L 10.8611111111111 22.1782178217822  L 10.8611111111111 29.7821782178218  C 10.8611111111111 30.3894389438944  10.6414930555556 30.9108910891089  10.2022569444444 31.3465346534653  C 9.76302083333333 31.7821782178218  9.23726851851852 32  8.625 32  C 8.01273148148148 32  7.48697916666667 31.7821782178218  7.04774305555556 31.3465346534653  C 6.60850694444444 30.9108910891089  6.38888888888889 30.3894389438944  6.38888888888889 29.7821782178218  L 6.38888888888889 13.4653465346535  L 0.559027777777778 7.68316831683168  C 0.186342592592593 7.31353135313531  0 6.86468646864686  0 6.33663366336634  C 0 5.80858085808581  0.186342592592593 5.35973597359736  0.559027777777778 4.99009900990099  C 0.945023148148148 4.62046204620462  1.40089699074074 4.43564356435644  1.92664930555556 4.43564356435644  C 2.45240162037037 4.43564356435644  2.90162037037037 4.62046204620462  3.27430555555556 4.99009900990099  L 7.82638888888889 9.50495049504951  L 15.1736111111111 9.50495049504951  L 19.7256944444444 4.99009900990099  C 20.0983796296296 4.62046204620462  20.5509259259259 4.43564356435644  21.0833333333333 4.43564356435644  C 21.6157407407407 4.43564356435644  22.068287037037 4.62046204620462  22.4409722222222 4.99009900990099  C 22.8136574074074 5.37293729372937  23 5.82508250825082  23 6.34653465346535  Z M 14.6644965277778 1.2970297029703  C 15.5363136574074 2.16171617161716  15.9722222222222 3.20792079207921  15.9722222222222 4.43564356435644  C 15.9722222222222 5.66336633663366  15.5363136574074 6.70957095709571  14.6644965277778 7.57425742574257  C 13.7926793981481 8.43894389438944  12.7378472222222 8.87128712871287  11.5 8.87128712871287  C 10.2621527777778 8.87128712871287  9.20732060185185 8.43894389438944  8.33550347222222 7.57425742574257  C 7.46368634259259 6.70957095709571  7.02777777777778 5.66336633663366  7.02777777777778 4.43564356435644  C 7.02777777777778 3.20792079207921  7.46368634259259 2.16171617161716  8.33550347222222 1.2970297029703  C 9.20732060185185 0.432343234323429  10.2621527777778 0  11.5 0  C 12.7378472222222 0  13.7926793981481 0.432343234323429  14.6644965277778 1.2970297029703  Z " fill-rule="nonzero" fill="#000000" stroke="none" transform="matrix(1 0 0 1 1003 434 )" />
  </g>
</svg>