<?xml version="1.0" encoding="utf-8"?>
<svg version="1.1" xmlns:xlink="http://www.w3.org/1999/xlink" width="50px" height="50px" xmlns="http://www.w3.org/2000/svg">
  <g transform="matrix(1 0 0 1 -1898 -503 )">
    <path d="M 36.1653645833333 23.2096354166667  C 36.4908854166667 23.5568576388889  36.5668402777778 23.9366319444444  36.3932291666667 24.3489583333333  C 36.2196180555556 24.7829861111111  35.8940972222222 25  35.4166666666667 25  L 29 25  L 29 36.4583333333333  C 29.1666666666667 36.7621527777778  29.0690104166667 37.01171875  28.8736979166667 37.20703125  C 28.6783854166667 37.40234375  28.4288194444444 37.5  28.125 37.5  L 21.875 37.5  C 21.5711805555556 37.5  21.3216145833333 37.40234375  21.1263020833333 37.20703125  C 20.9309895833333 37.01171875  20.8333333333333 36.7621527777778  21 36.4583333333333  L 21 25  L 14.5833333333333 25  C 14.2795138888889 25  14.0299479166667 24.90234375  13.8346354166667 24.70703125  C 13.6393229166667 24.51171875  13.5416666666667 24.2621527777778  13.5416666666667 23.9583333333333  C 13.5416666666667 23.6979166666667  13.6501736111111 23.4375  13.8671875 23.1770833333333  L 24.2513020833333 12.79296875  C 24.4900173611111 12.59765625  24.7395833333333 12.5  25 12.5  C 25.2604166666667 12.5  25.5099826388889 12.59765625  25.7486979166667 12.79296875  L 36.1653645833333 23.2096354166667  Z M 33.88671875 9.66796875  C 31.1740451388889 8.08376736111111  28.2118055555556 7.29166666666667  25 7.29166666666667  C 21.7881944444444 7.29166666666667  18.8259548611111 8.08376736111111  16.11328125 9.66796875  C 13.4006076388889 11.2521701388889  11.2521701388889 13.4006076388889  9.66796875 16.11328125  C 8.08376736111111 18.8259548611111  7.29166666666667 21.7881944444444  7.29166666666667 25  C 7.29166666666667 28.2118055555556  8.08376736111111 31.1740451388889  9.66796875 33.88671875  C 11.2521701388889 36.5993923611111  13.4006076388889 38.7478298611111  16.11328125 40.33203125  C 18.8259548611111 41.9162326388889  21.7881944444444 42.7083333333333  25 42.7083333333333  C 28.2118055555556 42.7083333333333  31.1740451388889 41.9162326388889  33.88671875 40.33203125  C 36.5993923611111 38.7478298611111  38.7478298611111 36.5993923611111  40.33203125 33.88671875  C 41.9162326388889 31.1740451388889  42.7083333333333 28.2118055555556  42.7083333333333 25  C 42.7083333333333 21.7881944444444  41.9162326388889 18.8259548611111  40.33203125 16.11328125  C 38.7478298611111 13.4006076388889  36.5993923611111 11.2521701388889  33.88671875 9.66796875  Z M 46.6471354166667 12.451171875  C 48.8823784722222 16.2814670138889  50 20.4644097222222  50 25  C 50 29.5355902777778  48.8823784722222 33.7185329861111  46.6471354166667 37.548828125  C 44.4118923611111 41.3791232638889  41.3791232638889 44.4118923611111  37.548828125 46.6471354166667  C 33.7185329861111 48.8823784722222  29.5355902777778 50  25 50  C 20.4644097222222 50  16.2814670138889 48.8823784722222  12.451171875 46.6471354166667  C 8.62087673611111 44.4118923611111  5.58810763888889 41.3791232638889  3.35286458333333 37.548828125  C 1.11762152777778 33.7185329861111  0 29.5355902777778  0 25  C 0 20.4644097222222  1.11762152777778 16.2814670138889  3.35286458333333 12.451171875  C 5.58810763888889 8.62087673611111  8.62087673611111 5.58810763888888  12.451171875 3.35286458333333  C 16.2814670138889 1.11762152777777  20.4644097222222 0  25 0  C 29.5355902777778 0  33.7185329861111 1.11762152777777  37.548828125 3.35286458333333  C 41.3791232638889 5.58810763888888  44.4118923611111 8.62087673611111  46.6471354166667 12.451171875  Z " fill-rule="nonzero" fill="#ffffff" stroke="none" transform="matrix(1 0 0 1 1898 503 )" />
  </g>
</svg>