<?xml version="1.0" encoding="utf-8"?>
<svg version="1.1" xmlns:xlink="http://www.w3.org/1999/xlink" width="23px" height="23px" xmlns="http://www.w3.org/2000/svg">
  <g transform="matrix(1 0 0 1 -734 -373 )">
    <path d="M 15.2210286458333 2.68033854166667  C 14.0380859375 2.17122395833333  12.7977430555556 1.91666666666667  11.5 1.91666666666667  C 10.2022569444444 1.91666666666667  8.9619140625 2.17122395833333  7.77897135416667 2.68033854166667  C 6.59602864583333 3.189453125  5.57779947916667 3.87076822916667  4.72428385416667 4.72428385416667  C 3.87076822916667 5.57779947916667  3.189453125 6.59602864583333  2.68033854166667 7.77897135416667  C 2.17122395833333 8.9619140625  1.91666666666667 10.2022569444444  1.91666666666667 11.5  C 1.91666666666667 12.7977430555556  2.17122395833333 14.0380859375  2.68033854166667 15.2210286458333  C 3.189453125 16.4039713541667  3.87076822916667 17.4222005208333  4.72428385416667 18.2757161458333  C 5.57779947916667 19.1292317708333  6.59602864583333 19.810546875  7.77897135416667 20.3196614583333  C 8.9619140625 20.8287760416667  10.2022569444444 21.0833333333333  11.5 21.0833333333333  C 12.7977430555556 21.0833333333333  14.0380859375 20.8287760416667  15.2210286458333 20.3196614583333  C 16.4039713541667 19.810546875  17.4222005208333 19.1292317708333  18.2757161458333 18.2757161458333  C 19.1292317708333 17.4222005208333  19.810546875 16.4039713541667  20.3196614583333 15.2210286458333  C 20.8287760416667 14.0380859375  21.0833333333333 12.7977430555556  21.0833333333333 11.5  C 21.0833333333333 10.2022569444444  20.8287760416667 8.9619140625  20.3196614583333 7.77897135416667  C 19.810546875 6.59602864583333  19.1292317708333 5.57779947916667  18.2757161458333 4.72428385416667  C 17.4222005208333 3.87076822916667  16.4039713541667 3.189453125  15.2210286458333 2.68033854166667  Z M 21.4576822916667 5.7275390625  C 22.4858940972222 7.48947482638889  23 9.41362847222222  23 11.5  C 23 13.5863715277778  22.4858940972222 15.5105251736111  21.4576822916667 17.2724609375  C 20.4294704861111 19.0343967013889  19.0343967013889 20.4294704861111  17.2724609375 21.4576822916667  C 15.5105251736111 22.4858940972222  13.5863715277778 23  11.5 23  C 9.41362847222222 23  7.48947482638889 22.4858940972222  5.7275390625 21.4576822916667  C 3.96560329861111 20.4294704861111  2.57052951388889 19.0343967013889  1.54231770833333 17.2724609375  C 0.514105902777778 15.5105251736111  0 13.5863715277778  0 11.5  C 0 9.41362847222222  0.514105902777778 7.48947482638889  1.54231770833333 5.7275390625  C 2.57052951388889 3.96560329861111  3.96560329861111 2.57052951388889  5.7275390625 1.54231770833333  C 7.48947482638889 0.514105902777776  9.41362847222222 0  11.5 0  C 13.5863715277778 0  15.5105251736111 0.514105902777776  17.2724609375 1.54231770833333  C 19.0343967013889 2.57052951388889  20.4294704861111 3.96560329861111  21.4576822916667 5.7275390625  Z " fill-rule="nonzero" fill="#0000ff" stroke="none" transform="matrix(1 0 0 1 734 373 )" />
  </g>
</svg>