<?xml version="1.0" encoding="utf-8"?>
<svg version="1.1" xmlns:xlink="http://www.w3.org/1999/xlink" width="20px" height="20px" xmlns="http://www.w3.org/2000/svg">
  <g transform="matrix(1 0 0 1 -699 -481 )">
    <path d="M 709 481  C 714.6 481  719 485.4  719 491  C 719 496.6  714.6 501  709 501  C 703.4 501  699 496.6  699 491  C 699 485.4  703.4 481  709 481  Z " fill-rule="nonzero" fill="#ffffff" stroke="none" />
    <path d="M 709 481.5  C 714.32 481.5  718.5 485.68  718.5 491  C 718.5 496.32  714.32 500.5  709 500.5  C 703.68 500.5  699.5 496.32  699.5 491  C 699.5 485.68  703.68 481.5  709 481.5  Z " stroke-width="1" stroke="#797979" fill="none" />
  </g>
</svg>