<?xml version="1.0" encoding="utf-8"?>
<svg version="1.1" xmlns:xlink="http://www.w3.org/1999/xlink" width="30px" height="22px" xmlns="http://www.w3.org/2000/svg">
  <g transform="matrix(1 0 0 1 -538 -252 )">
    <path d="M 28.6875 12.2578125  C 29.5625 13.3463541666667  30 14.59375  30 16  C 30 17.65625  29.4140625 19.0703125  28.2421875 20.2421875  C 27.0703125 21.4140625  25.65625 22  24 22  L 7 22  C 5.07291666666667 22  3.42447916666667 21.3151041666667  2.0546875 19.9453125  C 0.684895833333333 18.5755208333333  0 16.9270833333333  0 15  C 0 13.625  0.369791666666667 12.3671875  1.109375 11.2265625  C 1.84895833333333 10.0859375  2.82291666666667 9.234375  4.03125 8.671875  C 4.01041666666667 8.38020833333333  4 8.15625  4 8  C 4 5.79166666666667  4.78125 3.90625  6.34375 2.34375  C 7.90625 0.78125  9.79166666666667 0  12 0  C 13.6458333333333 0  15.1380208333333 0.458333333333332  16.4765625 1.375  C 17.8151041666667 2.29166666666666  18.7916666666667 3.48958333333333  19.40625 4.96875  C 20.1354166666667 4.32291666666667  21 4  22 4  C 23.1041666666667 4  24.046875 4.390625  24.828125 5.171875  C 25.609375 5.953125  26 6.89583333333333  26 8  C 26 8.78125  25.7864583333333 9.5  25.359375 10.15625  C 26.703125 10.46875  27.8125 11.1692708333333  28.6875 12.2578125  Z " fill-rule="nonzero" fill="#ffffff" stroke="none" transform="matrix(1 0 0 1 538 252 )" />
  </g>
</svg>