<?xml version="1.0" encoding="utf-8"?>
<svg version="1.1" xmlns:xlink="http://www.w3.org/1999/xlink" width="23px" height="25px" xmlns="http://www.w3.org/2000/svg">
  <g transform="matrix(1 0 0 1 -542 -308 )">
    <path d="M 4.78936298076923 22.6911272321429  C 5.13491586538462 22.3423549107143  5.30769230769231 21.9215029761905  5.30769230769231 21.4285714285714  C 5.30769230769231 20.9356398809524  5.13491586538462 20.5147879464286  4.78936298076923 20.166015625  C 4.44381009615385 19.8172433035714  4.02684294871795 19.6428571428571  3.53846153846154 19.6428571428571  C 3.05008012820513 19.6428571428571  2.63311298076923 19.8172433035714  2.28756009615385 20.166015625  C 1.94200721153846 20.5147879464286  1.76923076923077 20.9356398809524  1.76923076923077 21.4285714285714  C 1.76923076923077 21.9215029761905  1.94200721153846 22.3423549107143  2.28756009615385 22.6911272321429  C 2.63311298076923 23.0398995535714  3.05008012820513 23.2142857142857  3.53846153846154 23.2142857142857  C 4.02684294871795 23.2142857142857  4.44381009615385 23.0398995535714  4.78936298076923 22.6911272321429  Z M 10.0970552884615 22.6911272321429  C 10.4426081730769 22.3423549107143  10.6153846153846 21.9215029761905  10.6153846153846 21.4285714285714  C 10.6153846153846 20.9356398809524  10.4426081730769 20.5147879464286  10.0970552884615 20.166015625  C 9.75150240384615 19.8172433035714  9.33453525641026 19.6428571428571  8.84615384615385 19.6428571428571  C 8.35777243589744 19.6428571428571  7.94080528846154 19.8172433035714  7.59525240384615 20.166015625  C 7.24969951923077 20.5147879464286  7.07692307692308 20.9356398809524  7.07692307692308 21.4285714285714  C 7.07692307692308 21.9215029761905  7.24969951923077 22.3423549107143  7.59525240384615 22.6911272321429  C 7.94080528846154 23.0398995535714  8.35777243589744 23.2142857142857  8.84615384615385 23.2142857142857  C 9.33453525641026 23.2142857142857  9.75150240384615 23.0398995535714  10.0970552884615 22.6911272321429  Z M 4.78936298076923 17.333984375  C 5.13491586538462 16.9852120535714  5.30769230769231 16.5643601190476  5.30769230769231 16.0714285714286  C 5.30769230769231 15.5784970238095  5.13491586538462 15.1576450892857  4.78936298076923 14.8088727678571  C 4.44381009615385 14.4601004464286  4.02684294871795 14.2857142857143  3.53846153846154 14.2857142857143  C 3.05008012820513 14.2857142857143  2.63311298076923 14.4601004464286  2.28756009615385 14.8088727678571  C 1.94200721153846 15.1576450892857  1.76923076923077 15.5784970238095  1.76923076923077 16.0714285714286  C 1.76923076923077 16.5643601190476  1.94200721153846 16.9852120535714  2.28756009615385 17.333984375  C 2.63311298076923 17.6827566964286  3.05008012820513 17.8571428571429  3.53846153846154 17.8571428571429  C 4.02684294871795 17.8571428571429  4.44381009615385 17.6827566964286  4.78936298076923 17.333984375  Z M 15.4047475961538 22.6911272321429  C 15.7503004807692 22.3423549107143  15.9230769230769 21.9215029761905  15.9230769230769 21.4285714285714  C 15.9230769230769 20.9356398809524  15.7503004807692 20.5147879464286  15.4047475961538 20.166015625  C 15.0591947115385 19.8172433035714  14.6422275641026 19.6428571428571  14.1538461538462 19.6428571428571  C 13.6654647435897 19.6428571428571  13.2484975961538 19.8172433035714  12.9029447115385 20.166015625  C 12.5573918269231 20.5147879464286  12.3846153846154 20.9356398809524  12.3846153846154 21.4285714285714  C 12.3846153846154 21.9215029761905  12.5573918269231 22.3423549107143  12.9029447115385 22.6911272321429  C 13.2484975961538 23.0398995535714  13.6654647435897 23.2142857142857  14.1538461538462 23.2142857142857  C 14.6422275641026 23.2142857142857  15.0591947115385 23.0398995535714  15.4047475961538 22.6911272321429  Z M 10.0970552884615 17.333984375  C 10.4426081730769 16.9852120535714  10.6153846153846 16.5643601190476  10.6153846153846 16.0714285714286  C 10.6153846153846 15.5784970238095  10.4426081730769 15.1576450892857  10.0970552884615 14.8088727678571  C 9.75150240384615 14.4601004464286  9.33453525641026 14.2857142857143  8.84615384615385 14.2857142857143  C 8.35777243589744 14.2857142857143  7.94080528846154 14.4601004464286  7.59525240384615 14.8088727678571  C 7.24969951923077 15.1576450892857  7.07692307692308 15.5784970238095  7.07692307692308 16.0714285714286  C 7.07692307692308 16.5643601190476  7.24969951923077 16.9852120535714  7.59525240384615 17.333984375  C 7.94080528846154 17.6827566964286  8.35777243589744 17.8571428571429  8.84615384615385 17.8571428571429  C 9.33453525641026 17.8571428571429  9.75150240384615 17.6827566964286  10.0970552884615 17.333984375  Z M 4.78936298076923 11.9768415178571  C 5.13491586538462 11.6280691964286  5.30769230769231 11.2072172619048  5.30769230769231 10.7142857142857  C 5.30769230769231 10.2213541666667  5.13491586538462 9.80050223214286  4.78936298076923 9.45172991071428  C 4.44381009615385 9.10295758928572  4.02684294871795 8.92857142857143  3.53846153846154 8.92857142857143  C 3.05008012820513 8.92857142857143  2.63311298076923 9.10295758928572  2.28756009615385 9.45172991071428  C 1.94200721153846 9.80050223214286  1.76923076923077 10.2213541666667  1.76923076923077 10.7142857142857  C 1.76923076923077 11.2072172619048  1.94200721153846 11.6280691964286  2.28756009615385 11.9768415178571  C 2.63311298076923 12.3256138392857  3.05008012820513 12.5  3.53846153846154 12.5  C 4.02684294871795 12.5  4.44381009615385 12.3256138392857  4.78936298076923 11.9768415178571  Z M 15.4047475961538 17.333984375  C 15.7503004807692 16.9852120535714  15.9230769230769 16.5643601190476  15.9230769230769 16.0714285714286  C 15.9230769230769 15.5784970238095  15.7503004807692 15.1576450892857  15.4047475961538 14.8088727678571  C 15.0591947115385 14.4601004464286  14.6422275641026 14.2857142857143  14.1538461538462 14.2857142857143  C 13.6654647435897 14.2857142857143  13.2484975961538 14.4601004464286  12.9029447115385 14.8088727678571  C 12.5573918269231 15.1576450892857  12.3846153846154 15.5784970238095  12.3846153846154 16.0714285714286  C 12.3846153846154 16.5643601190476  12.5573918269231 16.9852120535714  12.9029447115385 17.333984375  C 13.2484975961538 17.6827566964286  13.6654647435897 17.8571428571429  14.1538461538462 17.8571428571429  C 14.6422275641026 17.8571428571429  15.0591947115385 17.6827566964286  15.4047475961538 17.333984375  Z M 10.0970552884615 11.9768415178571  C 10.4426081730769 11.6280691964286  10.6153846153846 11.2072172619048  10.6153846153846 10.7142857142857  C 10.6153846153846 10.2213541666667  10.4426081730769 9.80050223214286  10.0970552884615 9.45172991071428  C 9.75150240384615 9.10295758928572  9.33453525641026 8.92857142857143  8.84615384615385 8.92857142857143  C 8.35777243589744 8.92857142857143  7.94080528846154 9.10295758928572  7.59525240384615 9.45172991071428  C 7.24969951923077 9.80050223214286  7.07692307692308 10.2213541666667  7.07692307692308 10.7142857142857  C 7.07692307692308 11.2072172619048  7.24969951923077 11.6280691964286  7.59525240384615 11.9768415178571  C 7.94080528846154 12.3256138392857  8.35777243589744 12.5  8.84615384615385 12.5  C 9.33453525641026 12.5  9.75150240384615 12.3256138392857  10.0970552884615 11.9768415178571  Z M 20.7055288461538 22.6841517857143  C 21.0556891025641 22.3307291666667  21.2307692307692 21.9122023809524  21.2307692307692 21.4285714285714  L 21.2307692307692 16.0714285714286  C 21.2307692307692 15.5877976190476  21.0556891025641 15.1692708333333  20.7055288461538 14.8158482142857  C 20.3553685897436 14.4624255952381  19.9407051282051 14.2857142857143  19.4615384615385 14.2857142857143  C 18.9823717948718 14.2857142857143  18.5677083333333 14.4624255952381  18.2175480769231 14.8158482142857  C 17.8673878205128 15.1692708333333  17.6923076923077 15.5877976190476  17.6923076923077 16.0714285714286  L 17.6923076923077 21.4285714285714  C 17.6923076923077 21.9122023809524  17.8673878205128 22.3307291666667  18.2175480769231 22.6841517857143  C 18.5677083333333 23.0375744047619  18.9823717948718 23.2142857142857  19.4615384615385 23.2142857142857  C 19.9407051282051 23.2142857142857  20.3553685897436 23.0375744047619  20.7055288461538 22.6841517857143  Z M 15.4047475961538 11.9768415178571  C 15.7503004807692 11.6280691964286  15.9230769230769 11.2072172619048  15.9230769230769 10.7142857142857  C 15.9230769230769 10.2213541666667  15.7503004807692 9.80050223214286  15.4047475961538 9.45172991071428  C 15.0591947115385 9.10295758928572  14.6422275641026 8.92857142857143  14.1538461538462 8.92857142857143  C 13.6654647435897 8.92857142857143  13.2484975961538 9.10295758928572  12.9029447115385 9.45172991071428  C 12.5573918269231 9.80050223214286  12.3846153846154 10.2213541666667  12.3846153846154 10.7142857142857  C 12.3846153846154 11.2072172619048  12.5573918269231 11.6280691964286  12.9029447115385 11.9768415178571  C 13.2484975961538 12.3256138392857  13.6654647435897 12.5  14.1538461538462 12.5  C 14.6422275641026 12.5  15.0591947115385 12.3256138392857  15.4047475961538 11.9768415178571  Z M 20.9681490384615 6.87779017857143  C 21.1432291666667 6.70107886904762  21.2307692307692 6.49181547619047  21.2307692307692 6.25  L 21.2307692307692 2.67857142857143  C 21.2307692307692 2.43675595238095  21.1432291666667 2.22749255952381  20.9681490384615 2.05078125  C 20.7930689102564 1.87406994047619  20.5857371794872 1.78571428571428  20.3461538461538 2  L 2.65384615384615 2  C 2.41426282051282 1.78571428571428  2.20693108974359 1.87406994047619  2.03185096153846 2.05078125  C 1.85677083333333 2.22749255952381  1.76923076923077 2.43675595238095  1.76923076923077 2.67857142857143  L 1.76923076923077 6.25  C 1.76923076923077 6.49181547619047  1.85677083333333 6.70107886904762  2.03185096153846 6.87779017857143  C 2.20693108974359 7.05450148809524  2.41426282051282 7.14285714285714  2.65384615384615 7.14285714285714  L 20.3461538461538 7.14285714285714  C 20.5857371794872 7.14285714285714  20.7930689102564 7.05450148809524  20.9681490384615 6.87779017857143  Z M 20.7124399038462 11.9768415178571  C 21.0579927884615 11.6280691964286  21.2307692307692 11.2072172619048  21.2307692307692 10.7142857142857  C 21.2307692307692 10.2213541666667  21.0579927884615 9.80050223214286  20.7124399038462 9.45172991071428  C 20.3668870192308 9.10295758928572  19.9499198717949 8.92857142857143  19.4615384615385 8.92857142857143  C 18.9731570512821 8.92857142857143  18.5561899038462 9.10295758928572  18.2106370192308 9.45172991071428  C 17.8650841346154 9.80050223214286  17.6923076923077 10.2213541666667  17.6923076923077 10.7142857142857  C 17.6923076923077 11.2072172619048  17.8650841346154 11.6280691964286  18.2106370192308 11.9768415178571  C 18.5561899038462 12.3256138392857  18.9731570512821 12.5  19.4615384615385 12.5  C 19.9499198717949 12.5  20.3668870192308 12.3256138392857  20.7124399038462 11.9768415178571  Z M 22.4747596153846 0.530133928571427  C 22.8249198717949 0.883556547619047  23 1.30208333333333  23 1.78571428571428  L 23 23.2142857142857  C 23 23.6979166666667  22.8249198717949 24.116443452381  22.4747596153846 24.4698660714286  C 22.1245993589744 24.8232886904762  21.7099358974359 25  21.2307692307692 25  L 1.76923076923077 25  C 1.2900641025641 25  0.875400641025641 24.8232886904762  0.525240384615385 24.4698660714286  C 0.175080128205128 24.116443452381  0 23.6979166666667  0 23.2142857142857  L 0 1.78571428571428  C 0 1.30208333333333  0.175080128205128 0.883556547619047  0.525240384615385 0.530133928571427  C 0.875400641025641 0.176711309523811  1.2900641025641 0  1.76923076923077 0  L 21.2307692307692 0  C 21.7099358974359 0  22.1245993589744 0.176711309523811  22.4747596153846 0.530133928571427  Z " fill-rule="nonzero" fill="#ffffff" stroke="none" transform="matrix(1 0 0 1 542 308 )" />
  </g>
</svg>