<?xml version="1.0" encoding="utf-8"?>
<svg version="1.1" xmlns:xlink="http://www.w3.org/1999/xlink" width="27px" height="29px" xmlns="http://www.w3.org/2000/svg">
  <g transform="matrix(1 0 0 1 -538 -371 )">
    <path d="M 26.5078125 0.487980769230771  C 26.8359375 0.813301282051279  27 1.20833333333333  27 1.67307692307692  L 27 21.1923076923077  C 27 21.7732371794872  26.80078125 22.2902644230769  26.40234375 22.7433894230769  C 26.00390625 23.1965144230769  25.5 23.5479767628205  24.890625 23.7977764423077  C 24.28125 24.0475761217949  23.6748046875 24.2334735576923  23.0712890625 24.35546875  C 22.4677734375 24.4774639423077  21.90234375 24.5384615384615  21.375 24.5384615384615  C 20.84765625 24.5384615384615  20.2822265625 24.4774639423077  19.6787109375 24.35546875  C 19.0751953125 24.2334735576923  18.46875 24.0475761217949  17.859375 23.7977764423077  C 17.25 23.5479767628205  16.74609375 23.1965144230769  16.34765625 22.7433894230769  C 15.94921875 22.2902644230769  15.75 21.7732371794872  15.75 21.1923076923077  C 15.75 20.6113782051282  15.94921875 20.0943509615385  16.34765625 19.6412259615385  C 16.74609375 19.1881009615385  17.25 18.8366386217949  17.859375 18.5868389423077  C 18.46875 18.3370392628205  19.0751953125 18.1511418269231  19.6787109375 18.0291466346154  C 20.2822265625 17.9071514423077  20.84765625 17.8461538461538  21.375 17.8461538461538  C 22.60546875 17.8461538461538  23.73046875 18.0727163461538  24.75 18.5258413461538  L 24.75 9.16706730769231  L 11.25 13.2974759615385  L 11.25 25.6538461538462  C 11.25 26.2347756410256  11.05078125 26.7518028846154  10.65234375 27.2049278846154  C 10.25390625 27.6580528846154  9.75 28.009515224359  9.140625 28.2593149038462  C 8.53125 28.5091145833333  7.9248046875 28.6950120192308  7.3212890625 28.8170072115385  C 6.7177734375 28.9390024038462  6.15234375 29  5.625 29  C 5.09765625 29  4.5322265625 28.9390024038462  3.9287109375 28.8170072115385  C 3.3251953125 28.6950120192308  2.71875 28.5091145833333  2.109375 28.2593149038462  C 1.5 28.009515224359  0.99609375 27.6580528846154  0.59765625 27.2049278846154  C 0.19921875 26.7518028846154  0 26.2347756410256  0 25.6538461538462  C 0 25.0729166666667  0.19921875 24.5558894230769  0.59765625 24.1027644230769  C 0.99609375 23.6496394230769  1.5 23.2981770833333  2.109375 23.0483774038462  C 2.71875 22.798577724359  3.3251953125 22.6126802884615  3.9287109375 22.4906850961538  C 4.5322265625 22.3686899038462  5.09765625 22.3076923076923  5.625 22.3076923076923  C 6.85546875 22.3076923076923  7.98046875 22.5342548076923  9 22.9873798076923  L 9 6.13461538461539  C 9 5.7744391025641  9.111328125 5.44621394230769  9.333984375 5.14993990384615  C 9.556640625 4.85366586538462  9.84375 4.64743589743589  10.1953125 4.53125  L 24.8203125 0.0697115384615382  C 24.9609375 0.0232371794871794  25.125 0  25.3125 0  C 25.78125 0  26.1796875 0.162660256410256  26.5078125 0.487980769230771  Z " fill-rule="nonzero" fill="#ffffff" stroke="none" transform="matrix(1 0 0 1 538 371 )" />
  </g>
</svg>