<?xml version="1.0" encoding="utf-8"?>
<svg version="1.1" xmlns:xlink="http://www.w3.org/1999/xlink" width="50px" height="37px" xmlns="http://www.w3.org/2000/svg">
  <g transform="matrix(1 0 0 1 -1145 -295 )">
    <path d="M 47.8125 20.6154119318182  C 49.2708333333333 22.4461410984849  50 24.5440340909091  50 26.9090909090909  C 50 29.6946022727273  49.0234375 32.0727982954545  47.0703125 34.0436789772727  C 45.1171875 36.0145596590909  42.7604166666667 37  40 37  L 11.6666666666667 37  C 8.45486111111111 37  5.70746527777778 35.8481297348485  3.42447916666667 33.5443892045455  C 1.14149305555556 31.2406486742424  0 28.4682765151515  0 25.2272727272727  C 0 22.9147727272727  0.616319444444444 20.7993607954545  1.84895833333333 18.8810369318182  C 3.08159722222222 16.9627130681818  4.70486111111111 15.5305397727273  6.71875 14.5845170454545  C 6.68402777777778 14.0939867424242  6.66666666666667 13.7173295454545  6.66666666666667 13.4545454545455  C 6.66666666666667 9.7405303030303  7.96875 6.56960227272727  10.5729166666667 3.94176136363636  C 13.1770833333333 1.31392045454546  16.3194444444444 0  20 0  C 22.7430555555556 0  25.2300347222222 0.770833333333331  27.4609375 2.3125  C 29.6918402777778 3.85416666666666  31.3194444444444 5.8688446969697  32.34375 8.35653409090909  C 33.5590277777778 7.27035984848485  35 6.72727272727273  36.6666666666667 6.72727272727273  C 38.5069444444444 6.72727272727273  40.078125 7.38423295454546  41.3802083333333 8.69815340909091  C 42.6822916666667 10.0120738636364  43.3333333333333 11.5975378787879  43.3333333333333 13.4545454545455  C 43.3333333333333 14.7684659090909  42.9774305555556 15.9772727272727  42.265625 17.0809659090909  C 44.5052083333333 17.6065340909091  46.3541666666667 18.7846827651515  47.8125 20.6154119318182  Z " fill-rule="nonzero" fill="#000000" stroke="none" transform="matrix(1 0 0 1 1145 295 )" />
  </g>
</svg>