<?xml version="1.0" encoding="utf-8"?>
<svg version="1.1" xmlns:xlink="http://www.w3.org/1999/xlink" width="50px" height="48px" xmlns="http://www.w3.org/2000/svg">
  <g transform="matrix(1 0 0 1 -999 -396 )">
    <path d="M 25 22.59  C 25.6209935897436 22.59  26.2620192307692 22.7  27 22.92  L 27 40.32  C 26.9230769230769 42.4  26.161858974359 44.2  24.6394230769231 45.72  C 23.1169871794872 47.24  21.3141025641026 48  19.2307692307692 48  C 17.1474358974359 48  15.3445512820513 47.24  13.8221153846154 45.72  C 12.2996794871795 44.2  11.5384615384615 42.4  11.5384615384615 40.32  C 11.5384615384615 39.8  11.728766025641 39.35  12.109375 38.97  C 12.489983974359 38.59  12.9407051282051 38.4  13.4615384615385 38.4  C 13.9823717948718 38.4  14.4330929487179 38.59  14.8137019230769 38.97  C 15.1943108974359 39.35  15.3846153846154 39.8  15.3846153846154 40.32  C 15.3846153846154 41.32  15.7752403846154 42.21  16.5564903846154 42.99  C 17.3377403846154 43.77  18.2291666666667 44.16  19.2307692307692 44.16  C 20.2323717948718 44.16  21.1237980769231 43.77  21.9050480769231 42.99  C 22.6862980769231 42.21  23.0769230769231 41.32  23 40.32  L 23 22.92  C 23.7379807692308 22.7  24.3790064102564 22.59  25 22.59  Z M 49.9699519230769 23.52  C 49.989983974359 23.56  50 23.63  50 23.73  C 50 23.99  49.9048477564103 24.215  49.7145432692308 24.405  C 49.5242387820513 24.595  49.2988782051282 24.69  49.0384615384615 24.69  C 48.818108974359 24.69  48.5877403846154 24.59  48.3473557692308 24.39  C 47.3657852564103 23.47  46.4342948717949 22.78  45.5528846153846 22.32  C 44.6714743589744 21.86  43.6498397435897 21.63  42.4879807692308 21.63  C 41.1258012820513 21.63  39.84375 22  38.6418269230769 22.74  C 37.4399038461538 23.48  36.4082532051282 24.45  35.546875 25.65  C 35.4066506410256 25.85  35.2313701923077 26.13  35.0210336538462 26.49  C 34.8106971153846 26.85  34.6654647435897 27.09  34.5853365384615 27.21  C 34.364983974359 27.55  34.0845352564103 27.72  33.7439903846154 27.72  C 33.3834134615385 27.72  33.0929487179487 27.55  32.8725961538462 27.21  C 32.7924679487179 27.09  32.6472355769231 26.85  32.4368990384615 26.49  C 32.2265625 26.13  32.0512820512821 25.85  31.9110576923077 25.65  C 31.0496794871795 24.45  30.0230368589744 23.48  28.8311298076923 22.74  C 27.6392227564103 22  26.3621794871795 21.63  25 21.63  C 23.6378205128205 21.63  22.3607772435897 22  21.1688701923077 22.74  C 19.9769631410256 23.48  18.9503205128205 24.45  18.0889423076923 25.65  C 17.9487179487179 25.85  17.7734375 26.13  17.5631009615385 26.49  C 17.3527644230769 26.85  17.2075320512821 27.09  17.1274038461538 27.21  C 16.9070512820513 27.55  16.6165865384615 27.72  16.2560096153846 27.72  C 15.9154647435897 27.72  15.635016025641 27.55  15.4146634615385 27.21  C 15.3345352564103 27.09  15.1893028846154 26.85  14.9789663461538 26.49  C 14.7686298076923 26.13  14.5933493589744 25.85  14.453125 25.65  C 13.5917467948718 24.45  12.5600961538462 23.48  11.3581730769231 22.74  C 10.15625 22  8.87419871794872 21.63  7.51201923076923 21.63  C 6.35016025641026 21.63  5.32852564102564 21.86  4.44711538461539 22.32  C 3.56570512820513 22.78  2.63421474358974 23.47  1.65264423076923 24.39  C 1.41225961538462 24.59  1.18189102564103 24.69  0.961538461538462 24.69  C 0.701121794871795 24.69  0.475761217948718 24.595  0.285456730769231 24.405  C 0.0951522435897436 24.215  0 23.99  0 23.73  C 0 23.63  0.0100160256410256 23.56  0.0300480769230769 23.52  C 0.931490384615385 19.86  2.65925480769231 16.665  5.21334134615385 13.935  C 7.76742788461538 11.205  10.752203525641 9.16  14.1676682692308 7.8  C 17.5831330128205 6.43999999999999  21.1939102564103 5.76  25 5.76  C 27.8044871794872 5.76  30.5538862179487 6.16  33.2481971153846 6.96  C 35.9425080128205 7.76  38.4114583333333 8.895  40.6550480769231 10.365  C 42.8986378205128 11.835  44.8467548076923 13.705  46.4993990384615 15.975  C 48.1520432692308 18.245  49.3088942307692 20.76  49.9699519230769 23.52  Z M 26.3521634615385 0.569999999999999  C 26.7327724358974 0.949999999999994  26.9230769230769 1.4  26.9230769230769 1.92  L 26.9230769230769 4.86  C 26.0817307692308 4.82  25.4407051282051 4.8  25 4.8  C 24.5592948717949 4.8  23.9182692307692 4.82  23.0769230769231 4.86  L 23.0769230769231 1.92  C 23.0769230769231 1.4  23.2672275641026 0.949999999999994  23.6478365384615 0.569999999999999  C 24.0284455128205 0.189999999999998  24.4791666666667 0  25 0  C 25.5208333333333 0  25.9715544871795 0.189999999999998  26.3521634615385 0.569999999999999  Z " fill-rule="nonzero" fill="#000000" stroke="none" transform="matrix(1 0 0 1 999 396 )" />
  </g>
</svg>