<?xml version="1.0" encoding="utf-8"?>
<svg version="1.1" xmlns:xlink="http://www.w3.org/1999/xlink" width="12px" height="16px" xmlns="http://www.w3.org/2000/svg">
  <g transform="matrix(1 0 0 1 -1635 -226 )">
    <path d="M 11.7938144329897 7.6312625250501  C 11.9312714776632 7.73814295257181  12 7.86105544422178  12 8  C 12 8.13894455577822  11.9312714776632 8.26185704742819  11.7938144329897 8.3687374749499  L 2.18556701030928 15.8396793587174  C 2.04810996563574 15.9465597862391  1.89003436426117 16  1.71134020618557 16  C 1.53264604810997 16  1.3745704467354 15.9465597862391  1.23711340206186 15.8396793587174  L 0.206185567010309 15.0380761523046  C 0.0687285223367698 14.9311957247829  0 14.8082832331329  0 14.6693386773547  C 0 14.5303941215765  0.0687285223367698 14.4074816299265  0.206185567010309 14.3006012024048  L 8.30927835051546 8  L 0.206185567010309 1.69939879759519  C 0.0687285223367698 1.59251837007348  0 1.46960587842351  0 1.33066132264529  C 0 1.19171676686707  0.0687285223367698 1.0688042752171  0.206185567010309 0.96192384769539  L 1.23711340206186 0.160320641282565  C 1.3745704467354 0.0534402137608545  1.53264604810997 0  1.71134020618557 0  C 1.89003436426117 0  2.04810996563574 0.0534402137608545  2.18556701030928 0.160320641282565  L 11.7938144329897 7.6312625250501  Z " fill-rule="nonzero" fill="#aaaaaa" stroke="none" transform="matrix(1 0 0 1 1635 226 )" />
  </g>
</svg>