<?xml version="1.0" encoding="utf-8"?>
<svg version="1.1" xmlns:xlink="http://www.w3.org/1999/xlink" width="413px" height="236px" xmlns="http://www.w3.org/2000/svg">
  <defs>
    <mask fill="white" id="clip12">
      <path d="M 0 236  L 0 106  L 0 104.666666666668  L 0 0  L 413 0  L 413 236  L 0 236  Z " fill-rule="evenodd" />
    </mask>
  </defs>
  <g transform="matrix(1 0 0 1 -454 -706 )">
    <path d="M 0 236  L 0 106  L 0 104.666666666668  L 0 0  L 413 0  L 413 236  L 0 236  Z " fill-rule="nonzero" fill="#ffffff" stroke="none" transform="matrix(1 0 0 1 454 706 )" />
    <path d="M 0 236  L 0 106  L 0 104.666666666668  L 0 0  L 413 0  L 413 236  L 0 236  Z " stroke-width="2" stroke="#797979" fill="none" transform="matrix(1 0 0 1 454 706 )" mask="url(#clip12)" />
  </g>
</svg>