<?xml version="1.0" encoding="utf-8"?>
<svg version="1.1" xmlns:xlink="http://www.w3.org/1999/xlink" width="21px" height="21px" xmlns="http://www.w3.org/2000/svg">
  <g transform="matrix(1 0 0 1 -841 -226 )">
    <path d="M 851.5 226  C 857.38 226  862 230.62  862 236.5  C 862 242.38  857.38 247  851.5 247  C 845.62 247  841 242.38  841 236.5  C 841 230.62  845.62 226  851.5 226  Z " fill-rule="nonzero" fill="#ffffff" stroke="none" />
    <path d="M 851.5 226.5  C 857.1 226.5  861.5 230.9  861.5 236.5  C 861.5 242.1  857.1 246.5  851.5 246.5  C 845.9 246.5  841.5 242.1  841.5 236.5  C 841.5 230.9  845.9 226.5  851.5 226.5  Z " stroke-width="1" stroke="#797979" fill="none" />
  </g>
</svg>