<?xml version="1.0" encoding="utf-8"?>
<svg version="1.1" xmlns:xlink="http://www.w3.org/1999/xlink" width="31px" height="23px" xmlns="http://www.w3.org/2000/svg">
  <g transform="matrix(1 0 0 1 -761 -137 )">
    <path d="M 30.44 3.17508417508418  C 30.8133333333333 3.5364758698092  31 3.97530864197531  31 4.49158249158249  C 31 5.00785634118967  30.8133333333333 5.44668911335578  30.44 5.80808080808081  L 15.96 19.8249158249158  L 13.24 22.4579124579125  C 12.8666666666667 22.8193041526375  12.4133333333333 23  11.88 23  C 11.3466666666667 23  10.8933333333333 22.8193041526375  10.52 22.4579124579125  L 7.8 19.8249158249158  L 0.56 12.8164983164983  C 0.186666666666667 12.4551066217733  0 12.0162738496072  0 11.5  C 0 10.9837261503928  0.186666666666667 10.5448933782267  0.56 10.1835016835017  L 3.28 7.55050505050505  C 3.65333333333333 7.18911335578002  4.10666666666667 7.00841750841751  4.64 7.00841750841751  C 5.17333333333333 7.00841750841751  5.62666666666667 7.18911335578002  6 7.55050505050505  L 11.88 13.2617845117845  L 25 0.542087542087542  C 25.3733333333333 0.180695847362513  25.8266666666667 0  26.36 0  C 26.8933333333333 0  27.3466666666667 0.180695847362513  27.72 0.542087542087542  L 30.44 3.17508417508418  Z " fill-rule="nonzero" fill="#333333" stroke="none" transform="matrix(1 0 0 1 761 137 )" />
  </g>
</svg>