<?xml version="1.0" encoding="utf-8"?>
<svg version="1.1" xmlns:xlink="http://www.w3.org/1999/xlink" width="80px" height="80px" xmlns="http://www.w3.org/2000/svg">
  <defs>
    <filter x="694px" y="491px" width="80px" height="80px" filterUnits="userSpaceOnUse" id="filter13">
      <feOffset dx="5" dy="5" in="SourceAlpha" result="shadowOffsetInner" />
      <feGaussianBlur stdDeviation="2.5" in="shadowOffsetInner" result="shadowGaussian" />
      <feComposite in2="shadowGaussian" operator="atop" in="SourceAlpha" result="shadowComposite" />
      <feColorMatrix type="matrix" values="0 0 0 0 0  0 0 0 0 0  0 0 0 0 0  0 0 0 0.349019607843137 0  " in="shadowComposite" />
    </filter>
    <g id="widget14">
      <path d="M 729 491  C 748.6 491  764 506.4  764 526  C 764 545.6  748.6 561  729 561  C 709.4 561  694 545.6  694 526  C 694 506.4  709.4 491  729 491  Z " fill-rule="nonzero" fill="#ffffff" stroke="none" />
      <path d="M 729 491.5  C 748.32 491.5  763.5 506.68  763.5 526  C 763.5 545.32  748.32 560.5  729 560.5  C 709.68 560.5  694.5 545.32  694.5 526  C 694.5 506.68  709.68 491.5  729 491.5  Z " stroke-width="1" stroke="#797979" fill="none" />
    </g>
  </defs>
  <g transform="matrix(1 0 0 1 -694 -491 )">
    <use xlink:href="#widget14" filter="url(#filter13)" />
    <use xlink:href="#widget14" />
  </g>
</svg>