<?xml version="1.0" encoding="utf-8"?>
<svg version="1.1" xmlns:xlink="http://www.w3.org/1999/xlink" width="18px" height="32px" xmlns="http://www.w3.org/2000/svg">
  <g transform="matrix(1 0 0 1 -723 -510 )">
    <path d="M 17.40625 14.59375  C 17.8020833333333 14.9895833333333  18 15.4583333333333  18 16  C 18 16.5416666666667  17.8020833333333 17.0104166666667  17.40625 17.40625  L 3.40625 31.40625  C 3.01041666666667 31.8020833333333  2.54166666666667 32  2 32  C 1.45833333333333 32  0.989583333333333 31.8020833333333  0.59375 31.40625  C 0.197916666666667 31.0104166666667  0 30.5416666666667  0 30  L 0 2  C 0 1.45833333333333  0.197916666666667 0.989583333333329  0.59375 0.59375  C 0.989583333333333 0.197916666666664  1.45833333333333 0  2 0  C 2.54166666666667 0  3.01041666666667 0.197916666666664  3.40625 0.59375  L 17.40625 14.59375  Z " fill-rule="nonzero" fill="#009dd9" stroke="none" transform="matrix(1 0 0 1 723 510 )" />
  </g>
</svg>