<?xml version="1.0" encoding="utf-8"?>
<svg version="1.1" xmlns:xlink="http://www.w3.org/1999/xlink" width="32px" height="32px" xmlns="http://www.w3.org/2000/svg">
  <g transform="matrix(1 0 0 1 -1195 -510 )">
    <path d="M 31.6041666666667 0.395833333333332  C 31.8680555555556 0.659722222222218  32 0.972222222222218  32 1.33333333333333  L 32 30.6666666666667  C 32 31.0277777777778  31.8680555555556 31.3402777777778  31.6041666666667 31.6041666666667  C 31.3402777777778 31.8680555555556  31.0277777777778 32  30.6666666666667 32  L 20 32  C 19.6388888888889 32  19.3263888888889 31.8680555555556  19.0625 31.6041666666667  C 18.7986111111111 31.3402777777778  18.6666666666667 31.0277777777778  18.6666666666667 30.6666666666667  L 18.6666666666667 1.33333333333333  C 18.6666666666667 0.972222222222218  18.7986111111111 0.659722222222218  19.0625 0.395833333333332  C 19.3263888888889 0.131944444444443  19.6388888888889 0  20 0  L 30.6666666666667 0  C 31.0277777777778 0  31.3402777777778 0.131944444444443  31.6041666666667 0.395833333333332  Z M 12.9375 0.395833333333332  C 13.2013888888889 0.659722222222218  13.3333333333333 0.972222222222218  13.3333333333333 1.33333333333333  L 13.3333333333333 30.6666666666667  C 13.3333333333333 31.0277777777778  13.2013888888889 31.3402777777778  12.9375 31.6041666666667  C 12.6736111111111 31.8680555555556  12.3611111111111 32  12 32  L 1.33333333333333 32  C 0.972222222222222 32  0.659722222222222 31.8680555555556  0.395833333333333 31.6041666666667  C 0.131944444444444 31.3402777777778  0 31.0277777777778  0 30.6666666666667  L 0 1.33333333333333  C 0 0.972222222222218  0.131944444444444 0.659722222222218  0.395833333333333 0.395833333333332  C 0.659722222222222 0.131944444444443  0.972222222222222 0  1.33333333333333 0  L 12 0  C 12.3611111111111 0  12.6736111111111 0.131944444444443  12.9375 0.395833333333332  Z " fill-rule="nonzero" fill="#009dd9" stroke="none" transform="matrix(1 0 0 1 1195 510 )" />
  </g>
</svg>