<?xml version="1.0" encoding="utf-8"?>
<svg version="1.1" xmlns:xlink="http://www.w3.org/1999/xlink" width="16px" height="29px" xmlns="http://www.w3.org/2000/svg">
  <g transform="matrix(1 0 0 1 -1461 -333 )">
    <path d="M 15.4722222222222 13.2255859375  C 15.8240740740741 13.5843098958333  16 14.0091145833333  16 14.5  C 16 14.9908854166667  15.8240740740741 15.4156901041667  15.4722222222222 15.7744140625  L 3.02777777777778 28.4619140625  C 2.67592592592593 28.8206380208333  2.25925925925926 29  1.77777777777778 29  C 1.2962962962963 29  0.87962962962963 28.8206380208333  0.527777777777778 28.4619140625  C 0.175925925925926 28.1031901041667  0 27.6783854166667  0 27.1875  L 0 1.8125  C 0 1.32161458333333  0.175925925925926 0.896809895833329  0.527777777777778 0.5380859375  C 0.87962962962963 0.179361979166665  1.2962962962963 0  1.77777777777778 0  C 2.25925925925926 0  2.67592592592593 0.179361979166665  3.02777777777778 0.5380859375  L 15.4722222222222 13.2255859375  Z " fill-rule="nonzero" fill="#808080" stroke="none" fill-opacity="0.349019607843137" transform="matrix(1 0 0 1 1461 333 )" />
  </g>
</svg>